<?xml version="1.0" encoding="utf-8" standalone="no"?>
<!DOCTYPE svg PUBLIC "-//W3C//DTD SVG 1.1//EN"
  "http://www.w3.org/Graphics/SVG/1.1/DTD/svg11.dtd">
<svg xmlns:xlink="http://www.w3.org/1999/xlink" width="460.8pt" height="345.6pt" viewBox="0 0 460.8 345.6" xmlns="http://www.w3.org/2000/svg" version="1.1">
 <defs>
  <style type="text/css">*{stroke-linejoin: round; stroke-linecap: butt}</style>
 </defs>
 <g id="figure_1">
  <g id="patch_1">
   <path d="M 0 345.6 
L 460.8 345.6 
L 460.8 0 
L 0 0 
L 0 345.6 
z
" style="fill: none"/>
  </g>
  <g id="axes_1">
   <g id="patch_2">
    <path d="M 57.6 307.584 
L 414.72 307.584 
L 414.72 41.472 
L 57.6 41.472 
z
" style="fill: #888888; fill-opacity: 0.133333"/>
   </g>
   <g id="matplotlib.axis_1">
    <g id="xtick_1">
     <g id="line2d_1">
      <defs>
       <path id="mf1f902f02e" d="M 0 0 
L 0 3.5 
" style="stroke: #888888; stroke-width: 0.8"/>
      </defs>
      <g>
       <use xlink:href="#mf1f902f02e" x="73.832727" y="307.584" style="fill: #888888; stroke: #888888; stroke-width: 0.8"/>
      </g>
     </g>
     <g id="text_1">
      <text style="fill: #888888; font: 10px 'sans-serif'; text-anchor: middle" x="73.832727" y="322.182437" transform="rotate(-0, 73.832727, 322.182437)">0.00</text>
     </g>
    </g>
    <g id="xtick_2">
     <g id="line2d_2">
      <g>
       <use xlink:href="#mf1f902f02e" x="154.996364" y="307.584" style="fill: #888888; stroke: #888888; stroke-width: 0.8"/>
      </g>
     </g>
     <g id="text_2">
      <text style="fill: #888888; font: 10px 'sans-serif'; text-anchor: middle" x="154.996364" y="322.182437" transform="rotate(-0, 154.996364, 322.182437)">0.25</text>
     </g>
    </g>
    <g id="xtick_3">
     <g id="line2d_3">
      <g>
       <use xlink:href="#mf1f902f02e" x="236.16" y="307.584" style="fill: #888888; stroke: #888888; stroke-width: 0.8"/>
      </g>
     </g>
     <g id="text_3">
      <text style="fill: #888888; font: 10px 'sans-serif'; text-anchor: middle" x="236.16" y="322.182437" transform="rotate(-0, 236.16, 322.182437)">0.50</text>
     </g>
    </g>
    <g id="xtick_4">
     <g id="line2d_4">
      <g>
       <use xlink:href="#mf1f902f02e" x="317.323636" y="307.584" style="fill: #888888; stroke: #888888; stroke-width: 0.8"/>
      </g>
     </g>
     <g id="text_4">
      <text style="fill: #888888; font: 10px 'sans-serif'; text-anchor: middle" x="317.323636" y="322.182437" transform="rotate(-0, 317.323636, 322.182437)">0.75</text>
     </g>
    </g>
    <g id="xtick_5">
     <g id="line2d_5">
      <g>
       <use xlink:href="#mf1f902f02e" x="398.487273" y="307.584" style="fill: #888888; stroke: #888888; stroke-width: 0.8"/>
      </g>
     </g>
     <g id="text_5">
      <text style="fill: #888888; font: 10px 'sans-serif'; text-anchor: middle" x="398.487273" y="322.182437" transform="rotate(-0, 398.487273, 322.182437)">1.00</text>
     </g>
    </g>
    <g id="text_6">
     <text style="fill: #888888; font: 10px 'sans-serif'; text-anchor: middle" x="236.16" y="335.684" transform="rotate(-0, 236.16, 335.684)">x_0</text>
    </g>
   </g>
   <g id="matplotlib.axis_2">
    <g id="ytick_1">
     <g id="line2d_6">
      <defs>
       <path id="m9b85410f47" d="M 0 0 
L -3.5 0 
" style="stroke: #888888; stroke-width: 0.8"/>
      </defs>
      <g>
       <use xlink:href="#m9b85410f47" x="57.6" y="295.488" style="fill: #888888; stroke: #888888; stroke-width: 0.8"/>
      </g>
     </g>
     <g id="text_7">
      <text style="fill: #888888; font: 10px 'sans-serif'; text-anchor: end" x="50.6" y="299.287219" transform="rotate(-0, 50.6, 299.287219)">0.0</text>
     </g>
    </g>
    <g id="ytick_2">
     <g id="line2d_7">
      <g>
       <use xlink:href="#m9b85410f47" x="57.6" y="247.104" style="fill: #888888; stroke: #888888; stroke-width: 0.8"/>
      </g>
     </g>
     <g id="text_8">
      <text style="fill: #888888; font: 10px 'sans-serif'; text-anchor: end" x="50.6" y="250.903219" transform="rotate(-0, 50.6, 250.903219)">0.2</text>
     </g>
    </g>
    <g id="ytick_3">
     <g id="line2d_8">
      <g>
       <use xlink:href="#m9b85410f47" x="57.6" y="198.72" style="fill: #888888; stroke: #888888; stroke-width: 0.8"/>
      </g>
     </g>
     <g id="text_9">
      <text style="fill: #888888; font: 10px 'sans-serif'; text-anchor: end" x="50.6" y="202.519219" transform="rotate(-0, 50.6, 202.519219)">0.4</text>
     </g>
    </g>
    <g id="ytick_4">
     <g id="line2d_9">
      <g>
       <use xlink:href="#m9b85410f47" x="57.6" y="150.336" style="fill: #888888; stroke: #888888; stroke-width: 0.8"/>
      </g>
     </g>
     <g id="text_10">
      <text style="fill: #888888; font: 10px 'sans-serif'; text-anchor: end" x="50.6" y="154.135219" transform="rotate(-0, 50.6, 154.135219)">0.6</text>
     </g>
    </g>
    <g id="ytick_5">
     <g id="line2d_10">
      <g>
       <use xlink:href="#m9b85410f47" x="57.6" y="101.952" style="fill: #888888; stroke: #888888; stroke-width: 0.8"/>
      </g>
     </g>
     <g id="text_11">
      <text style="fill: #888888; font: 10px 'sans-serif'; text-anchor: end" x="50.6" y="105.751219" transform="rotate(-0, 50.6, 105.751219)">0.8</text>
     </g>
    </g>
    <g id="ytick_6">
     <g id="line2d_11">
      <g>
       <use xlink:href="#m9b85410f47" x="57.6" y="53.568" style="fill: #888888; stroke: #888888; stroke-width: 0.8"/>
      </g>
     </g>
     <g id="text_12">
      <text style="fill: #888888; font: 10px 'sans-serif'; text-anchor: end" x="50.6" y="57.367219" transform="rotate(-0, 50.6, 57.367219)">1.0</text>
     </g>
    </g>
   </g>
   <g id="line2d_12">
    <path d="M 73.832727 53.568 
L 76.450909 68.924004 
M 76.450909 68.924004 
L 79.069091 83.776533 
M 79.069091 83.776533 
L 81.687273 98.125586 
M 81.687273 98.125586 
L 84.305455 111.971163 
M 84.305455 111.971163 
L 86.923636 125.313265 
M 86.923636 125.313265 
L 89.541818 138.151892 
M 89.541818 138.151892 
L 92.16 150.487043 
M 92.16 150.487043 
L 94.778182 162.318718 
M 94.778182 162.318718 
L 97.396364 173.646918 
M 97.396364 173.646918 
L 100.014545 184.471642 
M 100.014545 184.471642 
L 102.632727 194.792891 
M 102.632727 194.792891 
L 105.250909 204.610664 
M 105.250909 204.610664 
L 107.869091 213.924961 
M 107.869091 213.924961 
L 110.487273 222.735784 
M 110.487273 222.735784 
L 113.105455 231.04313 
M 113.105455 231.04313 
L 115.723636 238.847001 
M 115.723636 238.847001 
L 118.341818 246.147396 
M 118.341818 246.147396 
L 120.96 252.944316 
M 120.96 252.944316 
L 123.578182 259.237761 
M 123.578182 259.237761 
L 126.196364 265.027729 
M 126.196364 265.027729 
L 128.814545 270.314223 
M 128.814545 270.314223 
L 131.432727 275.09724 
M 131.432727 275.09724 
L 134.050909 279.376783 
M 134.050909 279.376783 
L 136.669091 283.152849 
M 136.669091 283.152849 
L 139.287273 286.42544 
M 139.287273 286.42544 
L 141.905455 289.194556 
M 141.905455 289.194556 
L 144.523636 291.460196 
M 144.523636 291.460196 
L 147.141818 293.22236 
M 147.141818 293.22236 
L 149.76 294.481049 
M 149.76 294.481049 
L 152.378182 295.236262 
M 152.378182 295.236262 
L 154.996364 295.488 
M 154.996364 295.488 
L 157.614545 295.488 
M 157.614545 295.488 
L 160.232727 295.488 
M 160.232727 295.488 
L 162.850909 295.488 
M 162.850909 295.488 
L 165.469091 295.488 
M 165.469091 295.488 
L 168.087273 295.488 
M 168.087273 295.488 
L 170.705455 295.488 
M 170.705455 295.488 
L 173.323636 295.488 
M 173.323636 295.488 
L 175.941818 295.488 
M 175.941818 295.488 
L 178.56 295.488 
M 178.56 295.488 
L 181.178182 295.488 
M 181.178182 295.488 
L 183.796364 295.488 
M 183.796364 295.488 
L 186.414545 295.488 
M 186.414545 295.488 
L 189.032727 295.488 
M 189.032727 295.488 
L 191.650909 295.488 
M 191.650909 295.488 
L 194.269091 295.488 
M 194.269091 295.488 
L 196.887273 295.488 
M 196.887273 295.488 
L 199.505455 295.488 
M 199.505455 295.488 
L 202.123636 295.488 
M 202.123636 295.488 
L 204.741818 295.488 
M 204.741818 295.488 
L 207.36 295.488 
M 207.36 295.488 
L 209.978182 295.488 
M 209.978182 295.488 
L 212.596364 295.488 
M 212.596364 295.488 
L 215.214545 295.488 
M 215.214545 295.488 
L 217.832727 295.488 
M 217.832727 295.488 
L 220.450909 295.488 
M 220.450909 295.488 
L 223.069091 295.488 
M 223.069091 295.488 
L 225.687273 295.488 
M 225.687273 295.488 
L 228.305455 295.488 
M 228.305455 295.488 
L 230.923636 295.488 
M 230.923636 295.488 
L 233.541818 295.488 
M 233.541818 295.488 
L 236.16 295.488 
M 236.16 295.488 
L 238.778182 295.488 
M 238.778182 295.488 
L 241.396364 295.488 
M 241.396364 295.488 
L 244.014545 295.488 
M 244.014545 295.488 
L 246.632727 295.488 
M 246.632727 295.488 
L 249.250909 295.488 
M 249.250909 295.488 
L 251.869091 295.488 
M 251.869091 295.488 
L 254.487273 295.488 
M 254.487273 295.488 
L 257.105455 295.488 
M 257.105455 295.488 
L 259.723636 295.488 
M 259.723636 295.488 
L 262.341818 295.488 
M 262.341818 295.488 
L 264.96 295.488 
M 264.96 295.488 
L 267.578182 295.488 
M 267.578182 295.488 
L 270.196364 295.488 
M 270.196364 295.488 
L 272.814545 295.488 
M 272.814545 295.488 
L 275.432727 295.488 
M 275.432727 295.488 
L 278.050909 295.488 
M 278.050909 295.488 
L 280.669091 295.488 
M 280.669091 295.488 
L 283.287273 295.488 
M 283.287273 295.488 
L 285.905455 295.488 
M 285.905455 295.488 
L 288.523636 295.488 
M 288.523636 295.488 
L 291.141818 295.488 
M 291.141818 295.488 
L 293.76 295.488 
M 293.76 295.488 
L 296.378182 295.488 
M 296.378182 295.488 
L 298.996364 295.488 
M 298.996364 295.488 
L 301.614545 295.488 
M 301.614545 295.488 
L 304.232727 295.488 
M 304.232727 295.488 
L 306.850909 295.488 
M 306.850909 295.488 
L 309.469091 295.488 
M 309.469091 295.488 
L 312.087273 295.488 
M 312.087273 295.488 
L 314.705455 295.488 
M 314.705455 295.488 
L 317.323636 295.488 
M 317.323636 295.488 
L 319.941818 295.488 
M 319.941818 295.488 
L 322.56 295.488 
M 322.56 295.488 
L 325.178182 295.488 
M 325.178182 295.488 
L 327.796364 295.488 
M 327.796364 295.488 
L 330.414545 295.488 
M 330.414545 295.488 
L 333.032727 295.488 
M 333.032727 295.488 
L 335.650909 295.488 
M 335.650909 295.488 
L 338.269091 295.488 
M 338.269091 295.488 
L 340.887273 295.488 
M 340.887273 295.488 
L 343.505455 295.488 
M 343.505455 295.488 
L 346.123636 295.488 
M 346.123636 295.488 
L 348.741818 295.488 
M 348.741818 295.488 
L 351.36 295.488 
M 351.36 295.488 
L 353.978182 295.488 
M 353.978182 295.488 
L 356.596364 295.488 
M 356.596364 295.488 
L 359.214545 295.488 
M 359.214545 295.488 
L 361.832727 295.488 
M 361.832727 295.488 
L 364.450909 295.488 
M 364.450909 295.488 
L 367.069091 295.488 
M 367.069091 295.488 
L 369.687273 295.488 
M 369.687273 295.488 
L 372.305455 295.488 
M 372.305455 295.488 
L 374.923636 295.488 
M 374.923636 295.488 
L 377.541818 295.488 
M 377.541818 295.488 
L 380.16 295.488 
M 380.16 295.488 
L 382.778182 295.488 
M 382.778182 295.488 
L 385.396364 295.488 
M 385.396364 295.488 
L 388.014545 295.488 
M 388.014545 295.488 
L 390.632727 295.488 
M 390.632727 295.488 
L 393.250909 295.488 
M 393.250909 295.488 
L 395.869091 295.488 
M 395.869091 295.488 
L 398.487273 295.488 
L 398.487273 295.488 
" clip-path="url(#pf505eaf84c)" style="fill: none; stroke: #1f77b4; stroke-width: 1.5; stroke-linecap: square"/>
   </g>
   <g id="line2d_13">
    <path d="M 73.832727 295.488 
L 76.450909 280.257865 
M 76.450909 280.257865 
L 79.069091 265.782943 
M 79.069091 265.782943 
L 81.687273 252.063234 
M 81.687273 252.063234 
L 84.305455 239.098739 
M 84.305455 239.098739 
L 86.923636 226.889457 
M 86.923636 226.889457 
L 89.541818 215.435388 
M 89.541818 215.435388 
L 92.16 204.736533 
M 92.16 204.736533 
L 94.778182 194.792891 
M 94.778182 194.792891 
L 97.396364 185.604462 
M 97.396364 185.604462 
L 100.014545 177.171247 
M 100.014545 177.171247 
L 102.632727 169.493245 
M 102.632727 169.493245 
L 105.250909 162.570456 
M 105.250909 162.570456 
L 107.869091 156.40288 
M 107.869091 156.40288 
L 110.487273 150.990518 
M 110.487273 150.990518 
L 113.105455 146.333369 
M 113.105455 146.333369 
L 115.723636 142.431434 
M 115.723636 142.431434 
L 118.341818 139.284712 
M 118.341818 139.284712 
L 120.96 136.893203 
M 120.96 136.893203 
L 123.578182 135.256907 
M 123.578182 135.256907 
L 126.196364 134.375825 
M 126.196364 134.375825 
L 128.814545 134.249956 
M 128.814545 134.249956 
L 131.432727 134.879301 
M 131.432727 134.879301 
L 134.050909 136.263858 
M 134.050909 136.263858 
L 136.669091 138.40363 
M 136.669091 138.40363 
L 139.287273 141.298614 
M 139.287273 141.298614 
L 141.905455 144.948812 
M 141.905455 144.948812 
L 144.523636 149.354223 
M 144.523636 149.354223 
L 147.141818 154.514847 
M 147.141818 154.514847 
L 149.76 160.430685 
M 149.76 160.430685 
L 152.378182 167.101736 
M 152.378182 167.101736 
L 154.996364 174.528 
M 154.996364 174.528 
L 157.614545 182.206002 
M 157.614545 182.206002 
L 160.232727 189.632266 
M 160.232727 189.632266 
L 162.850909 196.806793 
M 162.850909 196.806793 
L 165.469091 203.729582 
M 165.469091 203.729582 
L 168.087273 210.400633 
M 168.087273 210.400633 
L 170.705455 216.819946 
M 170.705455 216.819946 
L 173.323636 222.987521 
M 173.323636 222.987521 
L 175.941818 228.903359 
M 175.941818 228.903359 
L 178.56 234.567459 
M 178.56 234.567459 
L 181.178182 239.979821 
M 181.178182 239.979821 
L 183.796364 245.140445 
M 183.796364 245.140445 
L 186.414545 250.049332 
M 186.414545 250.049332 
L 189.032727 254.706481 
M 189.032727 254.706481 
L 191.650909 259.111892 
M 191.650909 259.111892 
L 194.269091 263.265565 
M 194.269091 263.265565 
L 196.887273 267.167501 
M 196.887273 267.167501 
L 199.505455 270.817698 
M 199.505455 270.817698 
L 202.123636 274.216158 
M 202.123636 274.216158 
L 204.741818 277.36288 
M 204.741818 277.36288 
L 207.36 280.257865 
M 207.36 280.257865 
L 209.978182 282.901111 
M 209.978182 282.901111 
L 212.596364 285.29262 
M 212.596364 285.29262 
L 215.214545 287.432391 
M 215.214545 287.432391 
L 217.832727 289.320425 
M 217.832727 289.320425 
L 220.450909 290.95672 
M 220.450909 290.95672 
L 223.069091 292.341278 
M 223.069091 292.341278 
L 225.687273 293.474098 
M 225.687273 293.474098 
L 228.305455 294.35518 
M 228.305455 294.35518 
L 230.923636 294.984524 
M 230.923636 294.984524 
L 233.541818 295.362131 
M 233.541818 295.362131 
L 236.16 295.488 
M 236.16 295.488 
L 238.778182 295.488 
M 238.778182 295.488 
L 241.396364 295.488 
M 241.396364 295.488 
L 244.014545 295.488 
M 244.014545 295.488 
L 246.632727 295.488 
M 246.632727 295.488 
L 249.250909 295.488 
M 249.250909 295.488 
L 251.869091 295.488 
M 251.869091 295.488 
L 254.487273 295.488 
M 254.487273 295.488 
L 257.105455 295.488 
M 257.105455 295.488 
L 259.723636 295.488 
M 259.723636 295.488 
L 262.341818 295.488 
M 262.341818 295.488 
L 264.96 295.488 
M 264.96 295.488 
L 267.578182 295.488 
M 267.578182 295.488 
L 270.196364 295.488 
M 270.196364 295.488 
L 272.814545 295.488 
M 272.814545 295.488 
L 275.432727 295.488 
M 275.432727 295.488 
L 278.050909 295.488 
M 278.050909 295.488 
L 280.669091 295.488 
M 280.669091 295.488 
L 283.287273 295.488 
M 283.287273 295.488 
L 285.905455 295.488 
M 285.905455 295.488 
L 288.523636 295.488 
M 288.523636 295.488 
L 291.141818 295.488 
M 291.141818 295.488 
L 293.76 295.488 
M 293.76 295.488 
L 296.378182 295.488 
M 296.378182 295.488 
L 298.996364 295.488 
M 298.996364 295.488 
L 301.614545 295.488 
M 301.614545 295.488 
L 304.232727 295.488 
M 304.232727 295.488 
L 306.850909 295.488 
M 306.850909 295.488 
L 309.469091 295.488 
M 309.469091 295.488 
L 312.087273 295.488 
M 312.087273 295.488 
L 314.705455 295.488 
M 314.705455 295.488 
L 317.323636 295.488 
M 317.323636 295.488 
L 319.941818 295.488 
M 319.941818 295.488 
L 322.56 295.488 
M 322.56 295.488 
L 325.178182 295.488 
M 325.178182 295.488 
L 327.796364 295.488 
M 327.796364 295.488 
L 330.414545 295.488 
M 330.414545 295.488 
L 333.032727 295.488 
M 333.032727 295.488 
L 335.650909 295.488 
M 335.650909 295.488 
L 338.269091 295.488 
M 338.269091 295.488 
L 340.887273 295.488 
M 340.887273 295.488 
L 343.505455 295.488 
M 343.505455 295.488 
L 346.123636 295.488 
M 346.123636 295.488 
L 348.741818 295.488 
M 348.741818 295.488 
L 351.36 295.488 
M 351.36 295.488 
L 353.978182 295.488 
M 353.978182 295.488 
L 356.596364 295.488 
M 356.596364 295.488 
L 359.214545 295.488 
M 359.214545 295.488 
L 361.832727 295.488 
M 361.832727 295.488 
L 364.450909 295.488 
M 364.450909 295.488 
L 367.069091 295.488 
M 367.069091 295.488 
L 369.687273 295.488 
M 369.687273 295.488 
L 372.305455 295.488 
M 372.305455 295.488 
L 374.923636 295.488 
M 374.923636 295.488 
L 377.541818 295.488 
M 377.541818 295.488 
L 380.16 295.488 
M 380.16 295.488 
L 382.778182 295.488 
M 382.778182 295.488 
L 385.396364 295.488 
M 385.396364 295.488 
L 388.014545 295.488 
M 388.014545 295.488 
L 390.632727 295.488 
M 390.632727 295.488 
L 393.250909 295.488 
M 393.250909 295.488 
L 395.869091 295.488 
M 395.869091 295.488 
L 398.487273 295.488 
L 398.487273 295.488 
" clip-path="url(#pf505eaf84c)" style="fill: none; stroke: #ff7f0e; stroke-width: 1.5; stroke-linecap: square"/>
   </g>
   <g id="line2d_14">
    <path d="M 73.832727 295.488 
L 76.450909 295.362131 
M 76.450909 295.362131 
L 79.069091 294.984524 
M 79.069091 294.984524 
L 81.687273 294.35518 
M 81.687273 294.35518 
L 84.305455 293.474098 
M 84.305455 293.474098 
L 86.923636 292.341278 
M 86.923636 292.341278 
L 89.541818 290.95672 
M 89.541818 290.95672 
L 92.16 289.320425 
M 92.16 289.320425 
L 94.778182 287.432391 
M 94.778182 287.432391 
L 97.396364 285.29262 
M 97.396364 285.29262 
L 100.014545 282.901111 
M 100.014545 282.901111 
L 102.632727 280.257865 
M 102.632727 280.257865 
L 105.250909 277.36288 
M 105.250909 277.36288 
L 107.869091 274.216158 
M 107.869091 274.216158 
L 110.487273 270.817698 
M 110.487273 270.817698 
L 113.105455 267.167501 
M 113.105455 267.167501 
L 115.723636 263.265565 
M 115.723636 263.265565 
L 118.341818 259.111892 
M 118.341818 259.111892 
L 120.96 254.706481 
M 120.96 254.706481 
L 123.578182 250.049332 
M 123.578182 250.049332 
L 126.196364 245.140445 
M 126.196364 245.140445 
L 128.814545 239.979821 
M 128.814545 239.979821 
L 131.432727 234.567459 
M 131.432727 234.567459 
L 134.050909 228.903359 
M 134.050909 228.903359 
L 136.669091 222.987521 
M 136.669091 222.987521 
L 139.287273 216.819946 
M 139.287273 216.819946 
L 141.905455 210.400633 
M 141.905455 210.400633 
L 144.523636 203.729582 
M 144.523636 203.729582 
L 147.141818 196.806793 
M 147.141818 196.806793 
L 149.76 189.632266 
M 149.76 189.632266 
L 152.378182 182.206002 
M 152.378182 182.206002 
L 154.996364 174.528 
M 154.996364 174.528 
L 157.614545 166.975867 
M 157.614545 166.975867 
L 160.232727 159.927209 
M 160.232727 159.927209 
L 162.850909 153.382027 
M 162.850909 153.382027 
L 165.469091 147.34032 
M 165.469091 147.34032 
L 168.087273 141.802089 
M 168.087273 141.802089 
L 170.705455 136.767334 
M 170.705455 136.767334 
L 173.323636 132.236054 
M 173.323636 132.236054 
L 175.941818 128.20825 
M 175.941818 128.20825 
L 178.56 124.683921 
M 178.56 124.683921 
L 181.178182 121.663068 
M 181.178182 121.663068 
L 183.796364 119.14569 
M 183.796364 119.14569 
L 186.414545 117.131788 
M 186.414545 117.131788 
L 189.032727 115.621361 
M 189.032727 115.621361 
L 191.650909 114.61441 
M 191.650909 114.61441 
L 194.269091 114.110934 
M 194.269091 114.110934 
L 196.887273 114.110934 
M 196.887273 114.110934 
L 199.505455 114.61441 
M 199.505455 114.61441 
L 202.123636 115.621361 
M 202.123636 115.621361 
L 204.741818 117.131788 
M 204.741818 117.131788 
L 207.36 119.14569 
M 207.36 119.14569 
L 209.978182 121.663068 
M 209.978182 121.663068 
L 212.596364 124.683921 
M 212.596364 124.683921 
L 215.214545 128.20825 
M 215.214545 128.20825 
L 217.832727 132.236054 
M 217.832727 132.236054 
L 220.450909 136.767334 
M 220.450909 136.767334 
L 223.069091 141.802089 
M 223.069091 141.802089 
L 225.687273 147.34032 
M 225.687273 147.34032 
L 228.305455 153.382027 
M 228.305455 153.382027 
L 230.923636 159.927209 
M 230.923636 159.927209 
L 233.541818 166.975867 
M 233.541818 166.975867 
L 236.16 174.528 
M 236.16 174.528 
L 238.778182 182.206002 
M 238.778182 182.206002 
L 241.396364 189.632266 
M 241.396364 189.632266 
L 244.014545 196.806793 
M 244.014545 196.806793 
L 246.632727 203.729582 
M 246.632727 203.729582 
L 249.250909 210.400633 
M 249.250909 210.400633 
L 251.869091 216.819946 
M 251.869091 216.819946 
L 254.487273 222.987521 
M 254.487273 222.987521 
L 257.105455 228.903359 
M 257.105455 228.903359 
L 259.723636 234.567459 
M 259.723636 234.567459 
L 262.341818 239.979821 
M 262.341818 239.979821 
L 264.96 245.140445 
M 264.96 245.140445 
L 267.578182 250.049332 
M 267.578182 250.049332 
L 270.196364 254.706481 
M 270.196364 254.706481 
L 272.814545 259.111892 
M 272.814545 259.111892 
L 275.432727 263.265565 
M 275.432727 263.265565 
L 278.050909 267.167501 
M 278.050909 267.167501 
L 280.669091 270.817698 
M 280.669091 270.817698 
L 283.287273 274.216158 
M 283.287273 274.216158 
L 285.905455 277.36288 
M 285.905455 277.36288 
L 288.523636 280.257865 
M 288.523636 280.257865 
L 291.141818 282.901111 
M 291.141818 282.901111 
L 293.76 285.29262 
M 293.76 285.29262 
L 296.378182 287.432391 
M 296.378182 287.432391 
L 298.996364 289.320425 
M 298.996364 289.320425 
L 301.614545 290.95672 
M 301.614545 290.95672 
L 304.232727 292.341278 
M 304.232727 292.341278 
L 306.850909 293.474098 
M 306.850909 293.474098 
L 309.469091 294.35518 
M 309.469091 294.35518 
L 312.087273 294.984524 
M 312.087273 294.984524 
L 314.705455 295.362131 
M 314.705455 295.362131 
L 317.323636 295.488 
M 317.323636 295.488 
L 319.941818 295.488 
M 319.941818 295.488 
L 322.56 295.488 
M 322.56 295.488 
L 325.178182 295.488 
M 325.178182 295.488 
L 327.796364 295.488 
M 327.796364 295.488 
L 330.414545 295.488 
M 330.414545 295.488 
L 333.032727 295.488 
M 333.032727 295.488 
L 335.650909 295.488 
M 335.650909 295.488 
L 338.269091 295.488 
M 338.269091 295.488 
L 340.887273 295.488 
M 340.887273 295.488 
L 343.505455 295.488 
M 343.505455 295.488 
L 346.123636 295.488 
M 346.123636 295.488 
L 348.741818 295.488 
M 348.741818 295.488 
L 351.36 295.488 
M 351.36 295.488 
L 353.978182 295.488 
M 353.978182 295.488 
L 356.596364 295.488 
M 356.596364 295.488 
L 359.214545 295.488 
M 359.214545 295.488 
L 361.832727 295.488 
M 361.832727 295.488 
L 364.450909 295.488 
M 364.450909 295.488 
L 367.069091 295.488 
M 367.069091 295.488 
L 369.687273 295.488 
M 369.687273 295.488 
L 372.305455 295.488 
M 372.305455 295.488 
L 374.923636 295.488 
M 374.923636 295.488 
L 377.541818 295.488 
M 377.541818 295.488 
L 380.16 295.488 
M 380.16 295.488 
L 382.778182 295.488 
M 382.778182 295.488 
L 385.396364 295.488 
M 385.396364 295.488 
L 388.014545 295.488 
M 388.014545 295.488 
L 390.632727 295.488 
M 390.632727 295.488 
L 393.250909 295.488 
M 393.250909 295.488 
L 395.869091 295.488 
M 395.869091 295.488 
L 398.487273 295.488 
L 398.487273 295.488 
" clip-path="url(#pf505eaf84c)" style="fill: none; stroke: #2ca02c; stroke-width: 1.5; stroke-linecap: square"/>
   </g>
   <g id="line2d_15">
    <path d="M 73.832727 295.488 
L 76.450909 295.488 
M 76.450909 295.488 
L 79.069091 295.488 
M 79.069091 295.488 
L 81.687273 295.488 
M 81.687273 295.488 
L 84.305455 295.488 
M 84.305455 295.488 
L 86.923636 295.488 
M 86.923636 295.488 
L 89.541818 295.488 
M 89.541818 295.488 
L 92.16 295.488 
M 92.16 295.488 
L 94.778182 295.488 
M 94.778182 295.488 
L 97.396364 295.488 
M 97.396364 295.488 
L 100.014545 295.488 
M 100.014545 295.488 
L 102.632727 295.488 
M 102.632727 295.488 
L 105.250909 295.488 
M 105.250909 295.488 
L 107.869091 295.488 
M 107.869091 295.488 
L 110.487273 295.488 
M 110.487273 295.488 
L 113.105455 295.488 
M 113.105455 295.488 
L 115.723636 295.488 
M 115.723636 295.488 
L 118.341818 295.488 
M 118.341818 295.488 
L 120.96 295.488 
M 120.96 295.488 
L 123.578182 295.488 
M 123.578182 295.488 
L 126.196364 295.488 
M 126.196364 295.488 
L 128.814545 295.488 
M 128.814545 295.488 
L 131.432727 295.488 
M 131.432727 295.488 
L 134.050909 295.488 
M 134.050909 295.488 
L 136.669091 295.488 
M 136.669091 295.488 
L 139.287273 295.488 
M 139.287273 295.488 
L 141.905455 295.488 
M 141.905455 295.488 
L 144.523636 295.488 
M 144.523636 295.488 
L 147.141818 295.488 
M 147.141818 295.488 
L 149.76 295.488 
M 149.76 295.488 
L 152.378182 295.488 
M 152.378182 295.488 
L 154.996364 295.488 
M 154.996364 295.488 
L 157.614545 295.362131 
M 157.614545 295.362131 
L 160.232727 294.984524 
M 160.232727 294.984524 
L 162.850909 294.35518 
M 162.850909 294.35518 
L 165.469091 293.474098 
M 165.469091 293.474098 
L 168.087273 292.341278 
M 168.087273 292.341278 
L 170.705455 290.95672 
M 170.705455 290.95672 
L 173.323636 289.320425 
M 173.323636 289.320425 
L 175.941818 287.432391 
M 175.941818 287.432391 
L 178.56 285.29262 
M 178.56 285.29262 
L 181.178182 282.901111 
M 181.178182 282.901111 
L 183.796364 280.257865 
M 183.796364 280.257865 
L 186.414545 277.36288 
M 186.414545 277.36288 
L 189.032727 274.216158 
M 189.032727 274.216158 
L 191.650909 270.817698 
M 191.650909 270.817698 
L 194.269091 267.167501 
M 194.269091 267.167501 
L 196.887273 263.265565 
M 196.887273 263.265565 
L 199.505455 259.111892 
M 199.505455 259.111892 
L 202.123636 254.706481 
M 202.123636 254.706481 
L 204.741818 250.049332 
M 204.741818 250.049332 
L 207.36 245.140445 
M 207.36 245.140445 
L 209.978182 239.979821 
M 209.978182 239.979821 
L 212.596364 234.567459 
M 212.596364 234.567459 
L 215.214545 228.903359 
M 215.214545 228.903359 
L 217.832727 222.987521 
M 217.832727 222.987521 
L 220.450909 216.819946 
M 220.450909 216.819946 
L 223.069091 210.400633 
M 223.069091 210.400633 
L 225.687273 203.729582 
M 225.687273 203.729582 
L 228.305455 196.806793 
M 228.305455 196.806793 
L 230.923636 189.632266 
M 230.923636 189.632266 
L 233.541818 182.206002 
M 233.541818 182.206002 
L 236.16 174.528 
M 236.16 174.528 
L 238.778182 166.975867 
M 238.778182 166.975867 
L 241.396364 159.927209 
M 241.396364 159.927209 
L 244.014545 153.382027 
M 244.014545 153.382027 
L 246.632727 147.34032 
M 246.632727 147.34032 
L 249.250909 141.802089 
M 249.250909 141.802089 
L 251.869091 136.767334 
M 251.869091 136.767334 
L 254.487273 132.236054 
M 254.487273 132.236054 
L 257.105455 128.20825 
M 257.105455 128.20825 
L 259.723636 124.683921 
M 259.723636 124.683921 
L 262.341818 121.663068 
M 262.341818 121.663068 
L 264.96 119.14569 
M 264.96 119.14569 
L 267.578182 117.131788 
M 267.578182 117.131788 
L 270.196364 115.621361 
M 270.196364 115.621361 
L 272.814545 114.61441 
M 272.814545 114.61441 
L 275.432727 114.110934 
M 275.432727 114.110934 
L 278.050909 114.110934 
M 278.050909 114.110934 
L 280.669091 114.61441 
M 280.669091 114.61441 
L 283.287273 115.621361 
M 283.287273 115.621361 
L 285.905455 117.131788 
M 285.905455 117.131788 
L 288.523636 119.14569 
M 288.523636 119.14569 
L 291.141818 121.663068 
M 291.141818 121.663068 
L 293.76 124.683921 
M 293.76 124.683921 
L 296.378182 128.20825 
M 296.378182 128.20825 
L 298.996364 132.236054 
M 298.996364 132.236054 
L 301.614545 136.767334 
M 301.614545 136.767334 
L 304.232727 141.802089 
M 304.232727 141.802089 
L 306.850909 147.34032 
M 306.850909 147.34032 
L 309.469091 153.382027 
M 309.469091 153.382027 
L 312.087273 159.927209 
M 312.087273 159.927209 
L 314.705455 166.975867 
M 314.705455 166.975867 
L 317.323636 174.528 
M 317.323636 174.528 
L 319.941818 182.206002 
M 319.941818 182.206002 
L 322.56 189.632266 
M 322.56 189.632266 
L 325.178182 196.806793 
M 325.178182 196.806793 
L 327.796364 203.729582 
M 327.796364 203.729582 
L 330.414545 210.400633 
M 330.414545 210.400633 
L 333.032727 216.819946 
M 333.032727 216.819946 
L 335.650909 222.987521 
M 335.650909 222.987521 
L 338.269091 228.903359 
M 338.269091 228.903359 
L 340.887273 234.567459 
M 340.887273 234.567459 
L 343.505455 239.979821 
M 343.505455 239.979821 
L 346.123636 245.140445 
M 346.123636 245.140445 
L 348.741818 250.049332 
M 348.741818 250.049332 
L 351.36 254.706481 
M 351.36 254.706481 
L 353.978182 259.111892 
M 353.978182 259.111892 
L 356.596364 263.265565 
M 356.596364 263.265565 
L 359.214545 267.167501 
M 359.214545 267.167501 
L 361.832727 270.817698 
M 361.832727 270.817698 
L 364.450909 274.216158 
M 364.450909 274.216158 
L 367.069091 277.36288 
M 367.069091 277.36288 
L 369.687273 280.257865 
M 369.687273 280.257865 
L 372.305455 282.901111 
M 372.305455 282.901111 
L 374.923636 285.29262 
M 374.923636 285.29262 
L 377.541818 287.432391 
M 377.541818 287.432391 
L 380.16 289.320425 
M 380.16 289.320425 
L 382.778182 290.95672 
M 382.778182 290.95672 
L 385.396364 292.341278 
M 385.396364 292.341278 
L 388.014545 293.474098 
M 388.014545 293.474098 
L 390.632727 294.35518 
M 390.632727 294.35518 
L 393.250909 294.984524 
M 393.250909 294.984524 
L 395.869091 295.362131 
M 395.869091 295.362131 
L 398.487273 295.488 
L 398.487273 295.488 
" clip-path="url(#pf505eaf84c)" style="fill: none; stroke: #d62728; stroke-width: 1.5; stroke-linecap: square"/>
   </g>
   <g id="line2d_16">
    <path d="M 73.832727 295.488 
L 76.450909 295.488 
M 76.450909 295.488 
L 79.069091 295.488 
M 79.069091 295.488 
L 81.687273 295.488 
M 81.687273 295.488 
L 84.305455 295.488 
M 84.305455 295.488 
L 86.923636 295.488 
M 86.923636 295.488 
L 89.541818 295.488 
M 89.541818 295.488 
L 92.16 295.488 
M 92.16 295.488 
L 94.778182 295.488 
M 94.778182 295.488 
L 97.396364 295.488 
M 97.396364 295.488 
L 100.014545 295.488 
M 100.014545 295.488 
L 102.632727 295.488 
M 102.632727 295.488 
L 105.250909 295.488 
M 105.250909 295.488 
L 107.869091 295.488 
M 107.869091 295.488 
L 110.487273 295.488 
M 110.487273 295.488 
L 113.105455 295.488 
M 113.105455 295.488 
L 115.723636 295.488 
M 115.723636 295.488 
L 118.341818 295.488 
M 118.341818 295.488 
L 120.96 295.488 
M 120.96 295.488 
L 123.578182 295.488 
M 123.578182 295.488 
L 126.196364 295.488 
M 126.196364 295.488 
L 128.814545 295.488 
M 128.814545 295.488 
L 131.432727 295.488 
M 131.432727 295.488 
L 134.050909 295.488 
M 134.050909 295.488 
L 136.669091 295.488 
M 136.669091 295.488 
L 139.287273 295.488 
M 139.287273 295.488 
L 141.905455 295.488 
M 141.905455 295.488 
L 144.523636 295.488 
M 144.523636 295.488 
L 147.141818 295.488 
M 147.141818 295.488 
L 149.76 295.488 
M 149.76 295.488 
L 152.378182 295.488 
M 152.378182 295.488 
L 154.996364 295.488 
M 154.996364 295.488 
L 157.614545 295.488 
M 157.614545 295.488 
L 160.232727 295.488 
M 160.232727 295.488 
L 162.850909 295.488 
M 162.850909 295.488 
L 165.469091 295.488 
M 165.469091 295.488 
L 168.087273 295.488 
M 168.087273 295.488 
L 170.705455 295.488 
M 170.705455 295.488 
L 173.323636 295.488 
M 173.323636 295.488 
L 175.941818 295.488 
M 175.941818 295.488 
L 178.56 295.488 
M 178.56 295.488 
L 181.178182 295.488 
M 181.178182 295.488 
L 183.796364 295.488 
M 183.796364 295.488 
L 186.414545 295.488 
M 186.414545 295.488 
L 189.032727 295.488 
M 189.032727 295.488 
L 191.650909 295.488 
M 191.650909 295.488 
L 194.269091 295.488 
M 194.269091 295.488 
L 196.887273 295.488 
M 196.887273 295.488 
L 199.505455 295.488 
M 199.505455 295.488 
L 202.123636 295.488 
M 202.123636 295.488 
L 204.741818 295.488 
M 204.741818 295.488 
L 207.36 295.488 
M 207.36 295.488 
L 209.978182 295.488 
M 209.978182 295.488 
L 212.596364 295.488 
M 212.596364 295.488 
L 215.214545 295.488 
M 215.214545 295.488 
L 217.832727 295.488 
M 217.832727 295.488 
L 220.450909 295.488 
M 220.450909 295.488 
L 223.069091 295.488 
M 223.069091 295.488 
L 225.687273 295.488 
M 225.687273 295.488 
L 228.305455 295.488 
M 228.305455 295.488 
L 230.923636 295.488 
M 230.923636 295.488 
L 233.541818 295.488 
M 233.541818 295.488 
L 236.16 295.488 
M 236.16 295.488 
L 238.778182 295.362131 
M 238.778182 295.362131 
L 241.396364 294.984524 
M 241.396364 294.984524 
L 244.014545 294.35518 
M 244.014545 294.35518 
L 246.632727 293.474098 
M 246.632727 293.474098 
L 249.250909 292.341278 
M 249.250909 292.341278 
L 251.869091 290.95672 
M 251.869091 290.95672 
L 254.487273 289.320425 
M 254.487273 289.320425 
L 257.105455 287.432391 
M 257.105455 287.432391 
L 259.723636 285.29262 
M 259.723636 285.29262 
L 262.341818 282.901111 
M 262.341818 282.901111 
L 264.96 280.257865 
M 264.96 280.257865 
L 267.578182 277.36288 
M 267.578182 277.36288 
L 270.196364 274.216158 
M 270.196364 274.216158 
L 272.814545 270.817698 
M 272.814545 270.817698 
L 275.432727 267.167501 
M 275.432727 267.167501 
L 278.050909 263.265565 
M 278.050909 263.265565 
L 280.669091 259.111892 
M 280.669091 259.111892 
L 283.287273 254.706481 
M 283.287273 254.706481 
L 285.905455 250.049332 
M 285.905455 250.049332 
L 288.523636 245.140445 
M 288.523636 245.140445 
L 291.141818 239.979821 
M 291.141818 239.979821 
L 293.76 234.567459 
M 293.76 234.567459 
L 296.378182 228.903359 
M 296.378182 228.903359 
L 298.996364 222.987521 
M 298.996364 222.987521 
L 301.614545 216.819946 
M 301.614545 216.819946 
L 304.232727 210.400633 
M 304.232727 210.400633 
L 306.850909 203.729582 
M 306.850909 203.729582 
L 309.469091 196.806793 
M 309.469091 196.806793 
L 312.087273 189.632266 
M 312.087273 189.632266 
L 314.705455 182.206002 
M 314.705455 182.206002 
L 317.323636 174.528 
M 317.323636 174.528 
L 319.941818 167.101736 
M 319.941818 167.101736 
L 322.56 160.430685 
M 322.56 160.430685 
L 325.178182 154.514847 
M 325.178182 154.514847 
L 327.796364 149.354223 
M 327.796364 149.354223 
L 330.414545 144.948812 
M 330.414545 144.948812 
L 333.032727 141.298614 
M 333.032727 141.298614 
L 335.650909 138.40363 
M 335.650909 138.40363 
L 338.269091 136.263858 
M 338.269091 136.263858 
L 340.887273 134.879301 
M 340.887273 134.879301 
L 343.505455 134.249956 
M 343.505455 134.249956 
L 346.123636 134.375825 
M 346.123636 134.375825 
L 348.741818 135.256907 
M 348.741818 135.256907 
L 351.36 136.893203 
M 351.36 136.893203 
L 353.978182 139.284712 
M 353.978182 139.284712 
L 356.596364 142.431434 
M 356.596364 142.431434 
L 359.214545 146.333369 
M 359.214545 146.333369 
L 361.832727 150.990518 
M 361.832727 150.990518 
L 364.450909 156.40288 
M 364.450909 156.40288 
L 367.069091 162.570456 
M 367.069091 162.570456 
L 369.687273 169.493245 
M 369.687273 169.493245 
L 372.305455 177.171247 
M 372.305455 177.171247 
L 374.923636 185.604462 
M 374.923636 185.604462 
L 377.541818 194.792891 
M 377.541818 194.792891 
L 380.16 204.736533 
M 380.16 204.736533 
L 382.778182 215.435388 
M 382.778182 215.435388 
L 385.396364 226.889457 
M 385.396364 226.889457 
L 388.014545 239.098739 
M 388.014545 239.098739 
L 390.632727 252.063234 
M 390.632727 252.063234 
L 393.250909 265.782943 
M 393.250909 265.782943 
L 395.869091 280.257865 
M 395.869091 280.257865 
L 398.487273 295.488 
L 398.487273 295.488 
" clip-path="url(#pf505eaf84c)" style="fill: none; stroke: #9467bd; stroke-width: 1.5; stroke-linecap: square"/>
   </g>
   <g id="line2d_17">
    <path d="M 73.832727 295.488 
L 76.450909 295.488 
M 76.450909 295.488 
L 79.069091 295.488 
M 79.069091 295.488 
L 81.687273 295.488 
M 81.687273 295.488 
L 84.305455 295.488 
M 84.305455 295.488 
L 86.923636 295.488 
M 86.923636 295.488 
L 89.541818 295.488 
M 89.541818 295.488 
L 92.16 295.488 
M 92.16 295.488 
L 94.778182 295.488 
M 94.778182 295.488 
L 97.396364 295.488 
M 97.396364 295.488 
L 100.014545 295.488 
M 100.014545 295.488 
L 102.632727 295.488 
M 102.632727 295.488 
L 105.250909 295.488 
M 105.250909 295.488 
L 107.869091 295.488 
M 107.869091 295.488 
L 110.487273 295.488 
M 110.487273 295.488 
L 113.105455 295.488 
M 113.105455 295.488 
L 115.723636 295.488 
M 115.723636 295.488 
L 118.341818 295.488 
M 118.341818 295.488 
L 120.96 295.488 
M 120.96 295.488 
L 123.578182 295.488 
M 123.578182 295.488 
L 126.196364 295.488 
M 126.196364 295.488 
L 128.814545 295.488 
M 128.814545 295.488 
L 131.432727 295.488 
M 131.432727 295.488 
L 134.050909 295.488 
M 134.050909 295.488 
L 136.669091 295.488 
M 136.669091 295.488 
L 139.287273 295.488 
M 139.287273 295.488 
L 141.905455 295.488 
M 141.905455 295.488 
L 144.523636 295.488 
M 144.523636 295.488 
L 147.141818 295.488 
M 147.141818 295.488 
L 149.76 295.488 
M 149.76 295.488 
L 152.378182 295.488 
M 152.378182 295.488 
L 154.996364 295.488 
M 154.996364 295.488 
L 157.614545 295.488 
M 157.614545 295.488 
L 160.232727 295.488 
M 160.232727 295.488 
L 162.850909 295.488 
M 162.850909 295.488 
L 165.469091 295.488 
M 165.469091 295.488 
L 168.087273 295.488 
M 168.087273 295.488 
L 170.705455 295.488 
M 170.705455 295.488 
L 173.323636 295.488 
M 173.323636 295.488 
L 175.941818 295.488 
M 175.941818 295.488 
L 178.56 295.488 
M 178.56 295.488 
L 181.178182 295.488 
M 181.178182 295.488 
L 183.796364 295.488 
M 183.796364 295.488 
L 186.414545 295.488 
M 186.414545 295.488 
L 189.032727 295.488 
M 189.032727 295.488 
L 191.650909 295.488 
M 191.650909 295.488 
L 194.269091 295.488 
M 194.269091 295.488 
L 196.887273 295.488 
M 196.887273 295.488 
L 199.505455 295.488 
M 199.505455 295.488 
L 202.123636 295.488 
M 202.123636 295.488 
L 204.741818 295.488 
M 204.741818 295.488 
L 207.36 295.488 
M 207.36 295.488 
L 209.978182 295.488 
M 209.978182 295.488 
L 212.596364 295.488 
M 212.596364 295.488 
L 215.214545 295.488 
M 215.214545 295.488 
L 217.832727 295.488 
M 217.832727 295.488 
L 220.450909 295.488 
M 220.450909 295.488 
L 223.069091 295.488 
M 223.069091 295.488 
L 225.687273 295.488 
M 225.687273 295.488 
L 228.305455 295.488 
M 228.305455 295.488 
L 230.923636 295.488 
M 230.923636 295.488 
L 233.541818 295.488 
M 233.541818 295.488 
L 236.16 295.488 
M 236.16 295.488 
L 238.778182 295.488 
M 238.778182 295.488 
L 241.396364 295.488 
M 241.396364 295.488 
L 244.014545 295.488 
M 244.014545 295.488 
L 246.632727 295.488 
M 246.632727 295.488 
L 249.250909 295.488 
M 249.250909 295.488 
L 251.869091 295.488 
M 251.869091 295.488 
L 254.487273 295.488 
M 254.487273 295.488 
L 257.105455 295.488 
M 257.105455 295.488 
L 259.723636 295.488 
M 259.723636 295.488 
L 262.341818 295.488 
M 262.341818 295.488 
L 264.96 295.488 
M 264.96 295.488 
L 267.578182 295.488 
M 267.578182 295.488 
L 270.196364 295.488 
M 270.196364 295.488 
L 272.814545 295.488 
M 272.814545 295.488 
L 275.432727 295.488 
M 275.432727 295.488 
L 278.050909 295.488 
M 278.050909 295.488 
L 280.669091 295.488 
M 280.669091 295.488 
L 283.287273 295.488 
M 283.287273 295.488 
L 285.905455 295.488 
M 285.905455 295.488 
L 288.523636 295.488 
M 288.523636 295.488 
L 291.141818 295.488 
M 291.141818 295.488 
L 293.76 295.488 
M 293.76 295.488 
L 296.378182 295.488 
M 296.378182 295.488 
L 298.996364 295.488 
M 298.996364 295.488 
L 301.614545 295.488 
M 301.614545 295.488 
L 304.232727 295.488 
M 304.232727 295.488 
L 306.850909 295.488 
M 306.850909 295.488 
L 309.469091 295.488 
M 309.469091 295.488 
L 312.087273 295.488 
M 312.087273 295.488 
L 314.705455 295.488 
M 314.705455 295.488 
L 317.323636 295.488 
M 317.323636 295.488 
L 319.941818 295.236262 
M 319.941818 295.236262 
L 322.56 294.481049 
M 322.56 294.481049 
L 325.178182 293.22236 
M 325.178182 293.22236 
L 327.796364 291.460196 
M 327.796364 291.460196 
L 330.414545 289.194556 
M 330.414545 289.194556 
L 333.032727 286.42544 
M 333.032727 286.42544 
L 335.650909 283.152849 
M 335.650909 283.152849 
L 338.269091 279.376783 
M 338.269091 279.376783 
L 340.887273 275.09724 
M 340.887273 275.09724 
L 343.505455 270.314223 
M 343.505455 270.314223 
L 346.123636 265.027729 
M 346.123636 265.027729 
L 348.741818 259.237761 
M 348.741818 259.237761 
L 351.36 252.944316 
M 351.36 252.944316 
L 353.978182 246.147396 
M 353.978182 246.147396 
L 356.596364 238.847001 
M 356.596364 238.847001 
L 359.214545 231.04313 
M 359.214545 231.04313 
L 361.832727 222.735784 
M 361.832727 222.735784 
L 364.450909 213.924961 
M 364.450909 213.924961 
L 367.069091 204.610664 
M 367.069091 204.610664 
L 369.687273 194.792891 
M 369.687273 194.792891 
L 372.305455 184.471642 
M 372.305455 184.471642 
L 374.923636 173.646918 
M 374.923636 173.646918 
L 377.541818 162.318718 
M 377.541818 162.318718 
L 380.16 150.487043 
M 380.16 150.487043 
L 382.778182 138.151892 
M 382.778182 138.151892 
L 385.396364 125.313265 
M 385.396364 125.313265 
L 388.014545 111.971163 
M 388.014545 111.971163 
L 390.632727 98.125586 
M 390.632727 98.125586 
L 393.250909 83.776533 
M 393.250909 83.776533 
L 395.869091 68.924004 
M 395.869091 68.924004 
L 398.487273 53.568 
L 398.487273 53.568 
" clip-path="url(#pf505eaf84c)" style="fill: none; stroke: #8c564b; stroke-width: 1.5; stroke-linecap: square"/>
   </g>
   <g id="patch_3">
    <path d="M 57.6 307.584 
L 57.6 41.472 
" style="fill: none; stroke: #888888; stroke-width: 0.8; stroke-linejoin: miter; stroke-linecap: square"/>
   </g>
   <g id="patch_4">
    <path d="M 414.72 307.584 
L 414.72 41.472 
" style="fill: none; stroke: #888888; stroke-width: 0.8; stroke-linejoin: miter; stroke-linecap: square"/>
   </g>
   <g id="patch_5">
    <path d="M 57.6 307.584 
L 414.72 307.584 
" style="fill: none; stroke: #888888; stroke-width: 0.8; stroke-linejoin: miter; stroke-linecap: square"/>
   </g>
   <g id="patch_6">
    <path d="M 57.6 41.472 
L 414.72 41.472 
" style="fill: none; stroke: #888888; stroke-width: 0.8; stroke-linejoin: miter; stroke-linecap: square"/>
   </g>
  </g>
 </g>
 <defs>
  <clipPath id="pf505eaf84c">
   <rect x="57.6" y="41.472" width="357.12" height="266.112"/>
  </clipPath>
 </defs>
</svg>
