<?xml version="1.0" encoding="utf-8" standalone="no"?>
<!DOCTYPE svg PUBLIC "-//W3C//DTD SVG 1.1//EN"
  "http://www.w3.org/Graphics/SVG/1.1/DTD/svg11.dtd">
<svg xmlns:xlink="http://www.w3.org/1999/xlink" width="460.8pt" height="345.6pt" viewBox="0 0 460.8 345.6" xmlns="http://www.w3.org/2000/svg" version="1.1">
 <defs>
  <style type="text/css">*{stroke-linejoin: round; stroke-linecap: butt}</style>
 </defs>
 <g id="figure_1">
  <g id="patch_1">
   <path d="M 0 345.6 
L 460.8 345.6 
L 460.8 0 
L 0 0 
L 0 345.6 
z
" style="fill: none"/>
  </g>
  <g id="axes_1">
   <g id="patch_2">
    <path d="M 57.6 307.584 
L 414.72 307.584 
L 414.72 41.472 
L 57.6 41.472 
z
" style="fill: #888888; fill-opacity: 0.133333"/>
   </g>
   <g id="matplotlib.axis_1">
    <g id="xtick_1">
     <g id="line2d_1">
      <defs>
       <path id="mf1f902f02e" d="M 0 0 
L 0 3.5 
" style="stroke: #888888; stroke-width: 0.8"/>
      </defs>
      <g>
       <use xlink:href="#mf1f902f02e" x="73.832727" y="307.584" style="fill: #888888; stroke: #888888; stroke-width: 0.8"/>
      </g>
     </g>
     <g id="text_1">
      <text style="fill: #888888; font: 10px 'DejaVu Sans', 'Bitstream Vera Sans', 'Computer Modern Sans Serif', 'Lucida Grande', 'Verdana', 'Geneva', 'Lucid', 'Arial', 'Helvetica', 'Avant Garde', sans-serif; text-anchor: middle" x="73.832727" y="322.182437" transform="rotate(-0 73.832727 322.182437)">0.00</text>
     </g>
    </g>
    <g id="xtick_2">
     <g id="line2d_2">
      <g>
       <use xlink:href="#mf1f902f02e" x="154.996364" y="307.584" style="fill: #888888; stroke: #888888; stroke-width: 0.8"/>
      </g>
     </g>
     <g id="text_2">
      <text style="fill: #888888; font: 10px 'DejaVu Sans', 'Bitstream Vera Sans', 'Computer Modern Sans Serif', 'Lucida Grande', 'Verdana', 'Geneva', 'Lucid', 'Arial', 'Helvetica', 'Avant Garde', sans-serif; text-anchor: middle" x="154.996364" y="322.182437" transform="rotate(-0 154.996364 322.182437)">0.25</text>
     </g>
    </g>
    <g id="xtick_3">
     <g id="line2d_3">
      <g>
       <use xlink:href="#mf1f902f02e" x="236.16" y="307.584" style="fill: #888888; stroke: #888888; stroke-width: 0.8"/>
      </g>
     </g>
     <g id="text_3">
      <text style="fill: #888888; font: 10px 'DejaVu Sans', 'Bitstream Vera Sans', 'Computer Modern Sans Serif', 'Lucida Grande', 'Verdana', 'Geneva', 'Lucid', 'Arial', 'Helvetica', 'Avant Garde', sans-serif; text-anchor: middle" x="236.16" y="322.182437" transform="rotate(-0 236.16 322.182437)">0.50</text>
     </g>
    </g>
    <g id="xtick_4">
     <g id="line2d_4">
      <g>
       <use xlink:href="#mf1f902f02e" x="317.323636" y="307.584" style="fill: #888888; stroke: #888888; stroke-width: 0.8"/>
      </g>
     </g>
     <g id="text_4">
      <text style="fill: #888888; font: 10px 'DejaVu Sans', 'Bitstream Vera Sans', 'Computer Modern Sans Serif', 'Lucida Grande', 'Verdana', 'Geneva', 'Lucid', 'Arial', 'Helvetica', 'Avant Garde', sans-serif; text-anchor: middle" x="317.323636" y="322.182437" transform="rotate(-0 317.323636 322.182437)">0.75</text>
     </g>
    </g>
    <g id="xtick_5">
     <g id="line2d_5">
      <g>
       <use xlink:href="#mf1f902f02e" x="398.487273" y="307.584" style="fill: #888888; stroke: #888888; stroke-width: 0.8"/>
      </g>
     </g>
     <g id="text_5">
      <text style="fill: #888888; font: 10px 'DejaVu Sans', 'Bitstream Vera Sans', 'Computer Modern Sans Serif', 'Lucida Grande', 'Verdana', 'Geneva', 'Lucid', 'Arial', 'Helvetica', 'Avant Garde', sans-serif; text-anchor: middle" x="398.487273" y="322.182437" transform="rotate(-0 398.487273 322.182437)">1.00</text>
     </g>
    </g>
    <g id="text_6">
     <text style="fill: #888888; font: 10px 'DejaVu Sans', 'Bitstream Vera Sans', 'Computer Modern Sans Serif', 'Lucida Grande', 'Verdana', 'Geneva', 'Lucid', 'Arial', 'Helvetica', 'Avant Garde', sans-serif; text-anchor: middle" x="236.16" y="335.684" transform="rotate(-0 236.16 335.684)">x_0</text>
    </g>
   </g>
   <g id="matplotlib.axis_2">
    <g id="ytick_1">
     <g id="line2d_6">
      <defs>
       <path id="m9b85410f47" d="M 0 0 
L -3.5 0 
" style="stroke: #888888; stroke-width: 0.8"/>
      </defs>
      <g>
       <use xlink:href="#m9b85410f47" x="57.6" y="295.488" style="fill: #888888; stroke: #888888; stroke-width: 0.8"/>
      </g>
     </g>
     <g id="text_7">
      <text style="fill: #888888; font: 10px 'DejaVu Sans', 'Bitstream Vera Sans', 'Computer Modern Sans Serif', 'Lucida Grande', 'Verdana', 'Geneva', 'Lucid', 'Arial', 'Helvetica', 'Avant Garde', sans-serif; text-anchor: end" x="50.6" y="299.287219" transform="rotate(-0 50.6 299.287219)">0.0</text>
     </g>
    </g>
    <g id="ytick_2">
     <g id="line2d_7">
      <g>
       <use xlink:href="#m9b85410f47" x="57.6" y="247.104" style="fill: #888888; stroke: #888888; stroke-width: 0.8"/>
      </g>
     </g>
     <g id="text_8">
      <text style="fill: #888888; font: 10px 'DejaVu Sans', 'Bitstream Vera Sans', 'Computer Modern Sans Serif', 'Lucida Grande', 'Verdana', 'Geneva', 'Lucid', 'Arial', 'Helvetica', 'Avant Garde', sans-serif; text-anchor: end" x="50.6" y="250.903219" transform="rotate(-0 50.6 250.903219)">0.2</text>
     </g>
    </g>
    <g id="ytick_3">
     <g id="line2d_8">
      <g>
       <use xlink:href="#m9b85410f47" x="57.6" y="198.72" style="fill: #888888; stroke: #888888; stroke-width: 0.8"/>
      </g>
     </g>
     <g id="text_9">
      <text style="fill: #888888; font: 10px 'DejaVu Sans', 'Bitstream Vera Sans', 'Computer Modern Sans Serif', 'Lucida Grande', 'Verdana', 'Geneva', 'Lucid', 'Arial', 'Helvetica', 'Avant Garde', sans-serif; text-anchor: end" x="50.6" y="202.519219" transform="rotate(-0 50.6 202.519219)">0.4</text>
     </g>
    </g>
    <g id="ytick_4">
     <g id="line2d_9">
      <g>
       <use xlink:href="#m9b85410f47" x="57.6" y="150.336" style="fill: #888888; stroke: #888888; stroke-width: 0.8"/>
      </g>
     </g>
     <g id="text_10">
      <text style="fill: #888888; font: 10px 'DejaVu Sans', 'Bitstream Vera Sans', 'Computer Modern Sans Serif', 'Lucida Grande', 'Verdana', 'Geneva', 'Lucid', 'Arial', 'Helvetica', 'Avant Garde', sans-serif; text-anchor: end" x="50.6" y="154.135219" transform="rotate(-0 50.6 154.135219)">0.6</text>
     </g>
    </g>
    <g id="ytick_5">
     <g id="line2d_10">
      <g>
       <use xlink:href="#m9b85410f47" x="57.6" y="101.952" style="fill: #888888; stroke: #888888; stroke-width: 0.8"/>
      </g>
     </g>
     <g id="text_11">
      <text style="fill: #888888; font: 10px 'DejaVu Sans', 'Bitstream Vera Sans', 'Computer Modern Sans Serif', 'Lucida Grande', 'Verdana', 'Geneva', 'Lucid', 'Arial', 'Helvetica', 'Avant Garde', sans-serif; text-anchor: end" x="50.6" y="105.751219" transform="rotate(-0 50.6 105.751219)">0.8</text>
     </g>
    </g>
    <g id="ytick_6">
     <g id="line2d_11">
      <g>
       <use xlink:href="#m9b85410f47" x="57.6" y="53.568" style="fill: #888888; stroke: #888888; stroke-width: 0.8"/>
      </g>
     </g>
     <g id="text_12">
      <text style="fill: #888888; font: 10px 'DejaVu Sans', 'Bitstream Vera Sans', 'Computer Modern Sans Serif', 'Lucida Grande', 'Verdana', 'Geneva', 'Lucid', 'Arial', 'Helvetica', 'Avant Garde', sans-serif; text-anchor: end" x="50.6" y="57.367219" transform="rotate(-0 50.6 57.367219)">1.0</text>
     </g>
    </g>
   </g>
   <g id="line2d_12">
    <path d="M 73.832727 53.568 
L 76.450909 61.371871 
M 76.450909 61.371871 
L 79.069091 69.175742 
M 79.069091 69.175742 
L 81.687273 76.979613 
M 81.687273 76.979613 
L 84.305455 84.783484 
M 84.305455 84.783484 
L 86.923636 92.587355 
M 86.923636 92.587355 
L 89.541818 100.391226 
M 89.541818 100.391226 
L 92.16 108.195097 
M 92.16 108.195097 
L 94.778182 115.998968 
M 94.778182 115.998968 
L 97.396364 123.802839 
M 97.396364 123.802839 
L 100.014545 131.60671 
M 100.014545 131.60671 
L 102.632727 139.410581 
M 102.632727 139.410581 
L 105.250909 147.214452 
M 105.250909 147.214452 
L 107.869091 155.018323 
M 107.869091 155.018323 
L 110.487273 162.822194 
M 110.487273 162.822194 
L 113.105455 170.626065 
M 113.105455 170.626065 
L 115.723636 178.429935 
M 115.723636 178.429935 
L 118.341818 186.233806 
M 118.341818 186.233806 
L 120.96 194.037677 
M 120.96 194.037677 
L 123.578182 201.841548 
M 123.578182 201.841548 
L 126.196364 209.645419 
M 126.196364 209.645419 
L 128.814545 217.44929 
M 128.814545 217.44929 
L 131.432727 225.253161 
M 131.432727 225.253161 
L 134.050909 233.057032 
M 134.050909 233.057032 
L 136.669091 240.860903 
M 136.669091 240.860903 
L 139.287273 248.664774 
M 139.287273 248.664774 
L 141.905455 256.468645 
M 141.905455 256.468645 
L 144.523636 264.272516 
M 144.523636 264.272516 
L 147.141818 272.076387 
M 147.141818 272.076387 
L 149.76 279.880258 
M 149.76 279.880258 
L 152.378182 287.684129 
M 152.378182 287.684129 
L 154.996364 295.488 
M 154.996364 295.488 
L 157.614545 295.488 
M 157.614545 295.488 
L 160.232727 295.488 
M 160.232727 295.488 
L 162.850909 295.488 
M 162.850909 295.488 
L 165.469091 295.488 
M 165.469091 295.488 
L 168.087273 295.488 
M 168.087273 295.488 
L 170.705455 295.488 
M 170.705455 295.488 
L 173.323636 295.488 
M 173.323636 295.488 
L 175.941818 295.488 
M 175.941818 295.488 
L 178.56 295.488 
M 178.56 295.488 
L 181.178182 295.488 
M 181.178182 295.488 
L 183.796364 295.488 
M 183.796364 295.488 
L 186.414545 295.488 
M 186.414545 295.488 
L 189.032727 295.488 
M 189.032727 295.488 
L 191.650909 295.488 
M 191.650909 295.488 
L 194.269091 295.488 
M 194.269091 295.488 
L 196.887273 295.488 
M 196.887273 295.488 
L 199.505455 295.488 
M 199.505455 295.488 
L 202.123636 295.488 
M 202.123636 295.488 
L 204.741818 295.488 
M 204.741818 295.488 
L 207.36 295.488 
M 207.36 295.488 
L 209.978182 295.488 
M 209.978182 295.488 
L 212.596364 295.488 
M 212.596364 295.488 
L 215.214545 295.488 
M 215.214545 295.488 
L 217.832727 295.488 
M 217.832727 295.488 
L 220.450909 295.488 
M 220.450909 295.488 
L 223.069091 295.488 
M 223.069091 295.488 
L 225.687273 295.488 
M 225.687273 295.488 
L 228.305455 295.488 
M 228.305455 295.488 
L 230.923636 295.488 
M 230.923636 295.488 
L 233.541818 295.488 
M 233.541818 295.488 
L 236.16 295.488 
M 236.16 295.488 
L 238.778182 295.488 
M 238.778182 295.488 
L 241.396364 295.488 
M 241.396364 295.488 
L 244.014545 295.488 
M 244.014545 295.488 
L 246.632727 295.488 
M 246.632727 295.488 
L 249.250909 295.488 
M 249.250909 295.488 
L 251.869091 295.488 
M 251.869091 295.488 
L 254.487273 295.488 
M 254.487273 295.488 
L 257.105455 295.488 
M 257.105455 295.488 
L 259.723636 295.488 
M 259.723636 295.488 
L 262.341818 295.488 
M 262.341818 295.488 
L 264.96 295.488 
M 264.96 295.488 
L 267.578182 295.488 
M 267.578182 295.488 
L 270.196364 295.488 
M 270.196364 295.488 
L 272.814545 295.488 
M 272.814545 295.488 
L 275.432727 295.488 
M 275.432727 295.488 
L 278.050909 295.488 
M 278.050909 295.488 
L 280.669091 295.488 
M 280.669091 295.488 
L 283.287273 295.488 
M 283.287273 295.488 
L 285.905455 295.488 
M 285.905455 295.488 
L 288.523636 295.488 
M 288.523636 295.488 
L 291.141818 295.488 
M 291.141818 295.488 
L 293.76 295.488 
M 293.76 295.488 
L 296.378182 295.488 
M 296.378182 295.488 
L 298.996364 295.488 
M 298.996364 295.488 
L 301.614545 295.488 
M 301.614545 295.488 
L 304.232727 295.488 
M 304.232727 295.488 
L 306.850909 295.488 
M 306.850909 295.488 
L 309.469091 295.488 
M 309.469091 295.488 
L 312.087273 295.488 
M 312.087273 295.488 
L 314.705455 295.488 
M 314.705455 295.488 
L 317.323636 295.488 
M 317.323636 295.488 
L 319.941818 295.488 
M 319.941818 295.488 
L 322.56 295.488 
M 322.56 295.488 
L 325.178182 295.488 
M 325.178182 295.488 
L 327.796364 295.488 
M 327.796364 295.488 
L 330.414545 295.488 
M 330.414545 295.488 
L 333.032727 295.488 
M 333.032727 295.488 
L 335.650909 295.488 
M 335.650909 295.488 
L 338.269091 295.488 
M 338.269091 295.488 
L 340.887273 295.488 
M 340.887273 295.488 
L 343.505455 295.488 
M 343.505455 295.488 
L 346.123636 295.488 
M 346.123636 295.488 
L 348.741818 295.488 
M 348.741818 295.488 
L 351.36 295.488 
M 351.36 295.488 
L 353.978182 295.488 
M 353.978182 295.488 
L 356.596364 295.488 
M 356.596364 295.488 
L 359.214545 295.488 
M 359.214545 295.488 
L 361.832727 295.488 
M 361.832727 295.488 
L 364.450909 295.488 
M 364.450909 295.488 
L 367.069091 295.488 
M 367.069091 295.488 
L 369.687273 295.488 
M 369.687273 295.488 
L 372.305455 295.488 
M 372.305455 295.488 
L 374.923636 295.488 
M 374.923636 295.488 
L 377.541818 295.488 
M 377.541818 295.488 
L 380.16 295.488 
M 380.16 295.488 
L 382.778182 295.488 
M 382.778182 295.488 
L 385.396364 295.488 
M 385.396364 295.488 
L 388.014545 295.488 
M 388.014545 295.488 
L 390.632727 295.488 
M 390.632727 295.488 
L 393.250909 295.488 
M 393.250909 295.488 
L 395.869091 295.488 
M 395.869091 295.488 
L 398.487273 295.488 
L 398.487273 295.488 
" clip-path="url(#p9ce2eeedc2)" style="fill: none; stroke: #1f77b4; stroke-width: 1.5; stroke-linecap: square"/>
   </g>
   <g id="line2d_13">
    <path d="M 73.832727 295.488 
L 76.450909 287.684129 
M 76.450909 287.684129 
L 79.069091 279.880258 
M 79.069091 279.880258 
L 81.687273 272.076387 
M 81.687273 272.076387 
L 84.305455 264.272516 
M 84.305455 264.272516 
L 86.923636 256.468645 
M 86.923636 256.468645 
L 89.541818 248.664774 
M 89.541818 248.664774 
L 92.16 240.860903 
M 92.16 240.860903 
L 94.778182 233.057032 
M 94.778182 233.057032 
L 97.396364 225.253161 
M 97.396364 225.253161 
L 100.014545 217.44929 
M 100.014545 217.44929 
L 102.632727 209.645419 
M 102.632727 209.645419 
L 105.250909 201.841548 
M 105.250909 201.841548 
L 107.869091 194.037677 
M 107.869091 194.037677 
L 110.487273 186.233806 
M 110.487273 186.233806 
L 113.105455 178.429935 
M 113.105455 178.429935 
L 115.723636 170.626065 
M 115.723636 170.626065 
L 118.341818 162.822194 
M 118.341818 162.822194 
L 120.96 155.018323 
M 120.96 155.018323 
L 123.578182 147.214452 
M 123.578182 147.214452 
L 126.196364 139.410581 
M 126.196364 139.410581 
L 128.814545 131.60671 
M 128.814545 131.60671 
L 131.432727 123.802839 
M 131.432727 123.802839 
L 134.050909 115.998968 
M 134.050909 115.998968 
L 136.669091 108.195097 
M 136.669091 108.195097 
L 139.287273 100.391226 
M 139.287273 100.391226 
L 141.905455 92.587355 
M 141.905455 92.587355 
L 144.523636 84.783484 
M 144.523636 84.783484 
L 147.141818 76.979613 
M 147.141818 76.979613 
L 149.76 69.175742 
M 149.76 69.175742 
L 152.378182 61.371871 
M 152.378182 61.371871 
L 154.996364 53.568 
M 154.996364 53.568 
L 157.614545 61.371871 
M 157.614545 61.371871 
L 160.232727 69.175742 
M 160.232727 69.175742 
L 162.850909 76.979613 
M 162.850909 76.979613 
L 165.469091 84.783484 
M 165.469091 84.783484 
L 168.087273 92.587355 
M 168.087273 92.587355 
L 170.705455 100.391226 
M 170.705455 100.391226 
L 173.323636 108.195097 
M 173.323636 108.195097 
L 175.941818 115.998968 
M 175.941818 115.998968 
L 178.56 123.802839 
M 178.56 123.802839 
L 181.178182 131.60671 
M 181.178182 131.60671 
L 183.796364 139.410581 
M 183.796364 139.410581 
L 186.414545 147.214452 
M 186.414545 147.214452 
L 189.032727 155.018323 
M 189.032727 155.018323 
L 191.650909 162.822194 
M 191.650909 162.822194 
L 194.269091 170.626065 
M 194.269091 170.626065 
L 196.887273 178.429935 
M 196.887273 178.429935 
L 199.505455 186.233806 
M 199.505455 186.233806 
L 202.123636 194.037677 
M 202.123636 194.037677 
L 204.741818 201.841548 
M 204.741818 201.841548 
L 207.36 209.645419 
M 207.36 209.645419 
L 209.978182 217.44929 
M 209.978182 217.44929 
L 212.596364 225.253161 
M 212.596364 225.253161 
L 215.214545 233.057032 
M 215.214545 233.057032 
L 217.832727 240.860903 
M 217.832727 240.860903 
L 220.450909 248.664774 
M 220.450909 248.664774 
L 223.069091 256.468645 
M 223.069091 256.468645 
L 225.687273 264.272516 
M 225.687273 264.272516 
L 228.305455 272.076387 
M 228.305455 272.076387 
L 230.923636 279.880258 
M 230.923636 279.880258 
L 233.541818 287.684129 
M 233.541818 287.684129 
L 236.16 295.488 
M 236.16 295.488 
L 238.778182 295.488 
M 238.778182 295.488 
L 241.396364 295.488 
M 241.396364 295.488 
L 244.014545 295.488 
M 244.014545 295.488 
L 246.632727 295.488 
M 246.632727 295.488 
L 249.250909 295.488 
M 249.250909 295.488 
L 251.869091 295.488 
M 251.869091 295.488 
L 254.487273 295.488 
M 254.487273 295.488 
L 257.105455 295.488 
M 257.105455 295.488 
L 259.723636 295.488 
M 259.723636 295.488 
L 262.341818 295.488 
M 262.341818 295.488 
L 264.96 295.488 
M 264.96 295.488 
L 267.578182 295.488 
M 267.578182 295.488 
L 270.196364 295.488 
M 270.196364 295.488 
L 272.814545 295.488 
M 272.814545 295.488 
L 275.432727 295.488 
M 275.432727 295.488 
L 278.050909 295.488 
M 278.050909 295.488 
L 280.669091 295.488 
M 280.669091 295.488 
L 283.287273 295.488 
M 283.287273 295.488 
L 285.905455 295.488 
M 285.905455 295.488 
L 288.523636 295.488 
M 288.523636 295.488 
L 291.141818 295.488 
M 291.141818 295.488 
L 293.76 295.488 
M 293.76 295.488 
L 296.378182 295.488 
M 296.378182 295.488 
L 298.996364 295.488 
M 298.996364 295.488 
L 301.614545 295.488 
M 301.614545 295.488 
L 304.232727 295.488 
M 304.232727 295.488 
L 306.850909 295.488 
M 306.850909 295.488 
L 309.469091 295.488 
M 309.469091 295.488 
L 312.087273 295.488 
M 312.087273 295.488 
L 314.705455 295.488 
M 314.705455 295.488 
L 317.323636 295.488 
M 317.323636 295.488 
L 319.941818 295.488 
M 319.941818 295.488 
L 322.56 295.488 
M 322.56 295.488 
L 325.178182 295.488 
M 325.178182 295.488 
L 327.796364 295.488 
M 327.796364 295.488 
L 330.414545 295.488 
M 330.414545 295.488 
L 333.032727 295.488 
M 333.032727 295.488 
L 335.650909 295.488 
M 335.650909 295.488 
L 338.269091 295.488 
M 338.269091 295.488 
L 340.887273 295.488 
M 340.887273 295.488 
L 343.505455 295.488 
M 343.505455 295.488 
L 346.123636 295.488 
M 346.123636 295.488 
L 348.741818 295.488 
M 348.741818 295.488 
L 351.36 295.488 
M 351.36 295.488 
L 353.978182 295.488 
M 353.978182 295.488 
L 356.596364 295.488 
M 356.596364 295.488 
L 359.214545 295.488 
M 359.214545 295.488 
L 361.832727 295.488 
M 361.832727 295.488 
L 364.450909 295.488 
M 364.450909 295.488 
L 367.069091 295.488 
M 367.069091 295.488 
L 369.687273 295.488 
M 369.687273 295.488 
L 372.305455 295.488 
M 372.305455 295.488 
L 374.923636 295.488 
M 374.923636 295.488 
L 377.541818 295.488 
M 377.541818 295.488 
L 380.16 295.488 
M 380.16 295.488 
L 382.778182 295.488 
M 382.778182 295.488 
L 385.396364 295.488 
M 385.396364 295.488 
L 388.014545 295.488 
M 388.014545 295.488 
L 390.632727 295.488 
M 390.632727 295.488 
L 393.250909 295.488 
M 393.250909 295.488 
L 395.869091 295.488 
M 395.869091 295.488 
L 398.487273 295.488 
L 398.487273 295.488 
" clip-path="url(#p9ce2eeedc2)" style="fill: none; stroke: #ff7f0e; stroke-width: 1.5; stroke-linecap: square"/>
   </g>
   <g id="line2d_14">
    <path d="M 73.832727 295.488 
L 76.450909 295.488 
M 76.450909 295.488 
L 79.069091 295.488 
M 79.069091 295.488 
L 81.687273 295.488 
M 81.687273 295.488 
L 84.305455 295.488 
M 84.305455 295.488 
L 86.923636 295.488 
M 86.923636 295.488 
L 89.541818 295.488 
M 89.541818 295.488 
L 92.16 295.488 
M 92.16 295.488 
L 94.778182 295.488 
M 94.778182 295.488 
L 97.396364 295.488 
M 97.396364 295.488 
L 100.014545 295.488 
M 100.014545 295.488 
L 102.632727 295.488 
M 102.632727 295.488 
L 105.250909 295.488 
M 105.250909 295.488 
L 107.869091 295.488 
M 107.869091 295.488 
L 110.487273 295.488 
M 110.487273 295.488 
L 113.105455 295.488 
M 113.105455 295.488 
L 115.723636 295.488 
M 115.723636 295.488 
L 118.341818 295.488 
M 118.341818 295.488 
L 120.96 295.488 
M 120.96 295.488 
L 123.578182 295.488 
M 123.578182 295.488 
L 126.196364 295.488 
M 126.196364 295.488 
L 128.814545 295.488 
M 128.814545 295.488 
L 131.432727 295.488 
M 131.432727 295.488 
L 134.050909 295.488 
M 134.050909 295.488 
L 136.669091 295.488 
M 136.669091 295.488 
L 139.287273 295.488 
M 139.287273 295.488 
L 141.905455 295.488 
M 141.905455 295.488 
L 144.523636 295.488 
M 144.523636 295.488 
L 147.141818 295.488 
M 147.141818 295.488 
L 149.76 295.488 
M 149.76 295.488 
L 152.378182 295.488 
M 152.378182 295.488 
L 154.996364 295.488 
M 154.996364 295.488 
L 157.614545 287.684129 
M 157.614545 287.684129 
L 160.232727 279.880258 
M 160.232727 279.880258 
L 162.850909 272.076387 
M 162.850909 272.076387 
L 165.469091 264.272516 
M 165.469091 264.272516 
L 168.087273 256.468645 
M 168.087273 256.468645 
L 170.705455 248.664774 
M 170.705455 248.664774 
L 173.323636 240.860903 
M 173.323636 240.860903 
L 175.941818 233.057032 
M 175.941818 233.057032 
L 178.56 225.253161 
M 178.56 225.253161 
L 181.178182 217.44929 
M 181.178182 217.44929 
L 183.796364 209.645419 
M 183.796364 209.645419 
L 186.414545 201.841548 
M 186.414545 201.841548 
L 189.032727 194.037677 
M 189.032727 194.037677 
L 191.650909 186.233806 
M 191.650909 186.233806 
L 194.269091 178.429935 
M 194.269091 178.429935 
L 196.887273 170.626065 
M 196.887273 170.626065 
L 199.505455 162.822194 
M 199.505455 162.822194 
L 202.123636 155.018323 
M 202.123636 155.018323 
L 204.741818 147.214452 
M 204.741818 147.214452 
L 207.36 139.410581 
M 207.36 139.410581 
L 209.978182 131.60671 
M 209.978182 131.60671 
L 212.596364 123.802839 
M 212.596364 123.802839 
L 215.214545 115.998968 
M 215.214545 115.998968 
L 217.832727 108.195097 
M 217.832727 108.195097 
L 220.450909 100.391226 
M 220.450909 100.391226 
L 223.069091 92.587355 
M 223.069091 92.587355 
L 225.687273 84.783484 
M 225.687273 84.783484 
L 228.305455 76.979613 
M 228.305455 76.979613 
L 230.923636 69.175742 
M 230.923636 69.175742 
L 233.541818 61.371871 
M 233.541818 61.371871 
L 236.16 53.568 
M 236.16 53.568 
L 238.778182 61.371871 
M 238.778182 61.371871 
L 241.396364 69.175742 
M 241.396364 69.175742 
L 244.014545 76.979613 
M 244.014545 76.979613 
L 246.632727 84.783484 
M 246.632727 84.783484 
L 249.250909 92.587355 
M 249.250909 92.587355 
L 251.869091 100.391226 
M 251.869091 100.391226 
L 254.487273 108.195097 
M 254.487273 108.195097 
L 257.105455 115.998968 
M 257.105455 115.998968 
L 259.723636 123.802839 
M 259.723636 123.802839 
L 262.341818 131.60671 
M 262.341818 131.60671 
L 264.96 139.410581 
M 264.96 139.410581 
L 267.578182 147.214452 
M 267.578182 147.214452 
L 270.196364 155.018323 
M 270.196364 155.018323 
L 272.814545 162.822194 
M 272.814545 162.822194 
L 275.432727 170.626065 
M 275.432727 170.626065 
L 278.050909 178.429935 
M 278.050909 178.429935 
L 280.669091 186.233806 
M 280.669091 186.233806 
L 283.287273 194.037677 
M 283.287273 194.037677 
L 285.905455 201.841548 
M 285.905455 201.841548 
L 288.523636 209.645419 
M 288.523636 209.645419 
L 291.141818 217.44929 
M 291.141818 217.44929 
L 293.76 225.253161 
M 293.76 225.253161 
L 296.378182 233.057032 
M 296.378182 233.057032 
L 298.996364 240.860903 
M 298.996364 240.860903 
L 301.614545 248.664774 
M 301.614545 248.664774 
L 304.232727 256.468645 
M 304.232727 256.468645 
L 306.850909 264.272516 
M 306.850909 264.272516 
L 309.469091 272.076387 
M 309.469091 272.076387 
L 312.087273 279.880258 
M 312.087273 279.880258 
L 314.705455 287.684129 
M 314.705455 287.684129 
L 317.323636 295.488 
M 317.323636 295.488 
L 319.941818 295.488 
M 319.941818 295.488 
L 322.56 295.488 
M 322.56 295.488 
L 325.178182 295.488 
M 325.178182 295.488 
L 327.796364 295.488 
M 327.796364 295.488 
L 330.414545 295.488 
M 330.414545 295.488 
L 333.032727 295.488 
M 333.032727 295.488 
L 335.650909 295.488 
M 335.650909 295.488 
L 338.269091 295.488 
M 338.269091 295.488 
L 340.887273 295.488 
M 340.887273 295.488 
L 343.505455 295.488 
M 343.505455 295.488 
L 346.123636 295.488 
M 346.123636 295.488 
L 348.741818 295.488 
M 348.741818 295.488 
L 351.36 295.488 
M 351.36 295.488 
L 353.978182 295.488 
M 353.978182 295.488 
L 356.596364 295.488 
M 356.596364 295.488 
L 359.214545 295.488 
M 359.214545 295.488 
L 361.832727 295.488 
M 361.832727 295.488 
L 364.450909 295.488 
M 364.450909 295.488 
L 367.069091 295.488 
M 367.069091 295.488 
L 369.687273 295.488 
M 369.687273 295.488 
L 372.305455 295.488 
M 372.305455 295.488 
L 374.923636 295.488 
M 374.923636 295.488 
L 377.541818 295.488 
M 377.541818 295.488 
L 380.16 295.488 
M 380.16 295.488 
L 382.778182 295.488 
M 382.778182 295.488 
L 385.396364 295.488 
M 385.396364 295.488 
L 388.014545 295.488 
M 388.014545 295.488 
L 390.632727 295.488 
M 390.632727 295.488 
L 393.250909 295.488 
M 393.250909 295.488 
L 395.869091 295.488 
M 395.869091 295.488 
L 398.487273 295.488 
L 398.487273 295.488 
" clip-path="url(#p9ce2eeedc2)" style="fill: none; stroke: #2ca02c; stroke-width: 1.5; stroke-linecap: square"/>
   </g>
   <g id="line2d_15">
    <path d="M 73.832727 295.488 
L 76.450909 295.488 
M 76.450909 295.488 
L 79.069091 295.488 
M 79.069091 295.488 
L 81.687273 295.488 
M 81.687273 295.488 
L 84.305455 295.488 
M 84.305455 295.488 
L 86.923636 295.488 
M 86.923636 295.488 
L 89.541818 295.488 
M 89.541818 295.488 
L 92.16 295.488 
M 92.16 295.488 
L 94.778182 295.488 
M 94.778182 295.488 
L 97.396364 295.488 
M 97.396364 295.488 
L 100.014545 295.488 
M 100.014545 295.488 
L 102.632727 295.488 
M 102.632727 295.488 
L 105.250909 295.488 
M 105.250909 295.488 
L 107.869091 295.488 
M 107.869091 295.488 
L 110.487273 295.488 
M 110.487273 295.488 
L 113.105455 295.488 
M 113.105455 295.488 
L 115.723636 295.488 
M 115.723636 295.488 
L 118.341818 295.488 
M 118.341818 295.488 
L 120.96 295.488 
M 120.96 295.488 
L 123.578182 295.488 
M 123.578182 295.488 
L 126.196364 295.488 
M 126.196364 295.488 
L 128.814545 295.488 
M 128.814545 295.488 
L 131.432727 295.488 
M 131.432727 295.488 
L 134.050909 295.488 
M 134.050909 295.488 
L 136.669091 295.488 
M 136.669091 295.488 
L 139.287273 295.488 
M 139.287273 295.488 
L 141.905455 295.488 
M 141.905455 295.488 
L 144.523636 295.488 
M 144.523636 295.488 
L 147.141818 295.488 
M 147.141818 295.488 
L 149.76 295.488 
M 149.76 295.488 
L 152.378182 295.488 
M 152.378182 295.488 
L 154.996364 295.488 
M 154.996364 295.488 
L 157.614545 295.488 
M 157.614545 295.488 
L 160.232727 295.488 
M 160.232727 295.488 
L 162.850909 295.488 
M 162.850909 295.488 
L 165.469091 295.488 
M 165.469091 295.488 
L 168.087273 295.488 
M 168.087273 295.488 
L 170.705455 295.488 
M 170.705455 295.488 
L 173.323636 295.488 
M 173.323636 295.488 
L 175.941818 295.488 
M 175.941818 295.488 
L 178.56 295.488 
M 178.56 295.488 
L 181.178182 295.488 
M 181.178182 295.488 
L 183.796364 295.488 
M 183.796364 295.488 
L 186.414545 295.488 
M 186.414545 295.488 
L 189.032727 295.488 
M 189.032727 295.488 
L 191.650909 295.488 
M 191.650909 295.488 
L 194.269091 295.488 
M 194.269091 295.488 
L 196.887273 295.488 
M 196.887273 295.488 
L 199.505455 295.488 
M 199.505455 295.488 
L 202.123636 295.488 
M 202.123636 295.488 
L 204.741818 295.488 
M 204.741818 295.488 
L 207.36 295.488 
M 207.36 295.488 
L 209.978182 295.488 
M 209.978182 295.488 
L 212.596364 295.488 
M 212.596364 295.488 
L 215.214545 295.488 
M 215.214545 295.488 
L 217.832727 295.488 
M 217.832727 295.488 
L 220.450909 295.488 
M 220.450909 295.488 
L 223.069091 295.488 
M 223.069091 295.488 
L 225.687273 295.488 
M 225.687273 295.488 
L 228.305455 295.488 
M 228.305455 295.488 
L 230.923636 295.488 
M 230.923636 295.488 
L 233.541818 295.488 
M 233.541818 295.488 
L 236.16 295.488 
M 236.16 295.488 
L 238.778182 287.684129 
M 238.778182 287.684129 
L 241.396364 279.880258 
M 241.396364 279.880258 
L 244.014545 272.076387 
M 244.014545 272.076387 
L 246.632727 264.272516 
M 246.632727 264.272516 
L 249.250909 256.468645 
M 249.250909 256.468645 
L 251.869091 248.664774 
M 251.869091 248.664774 
L 254.487273 240.860903 
M 254.487273 240.860903 
L 257.105455 233.057032 
M 257.105455 233.057032 
L 259.723636 225.253161 
M 259.723636 225.253161 
L 262.341818 217.44929 
M 262.341818 217.44929 
L 264.96 209.645419 
M 264.96 209.645419 
L 267.578182 201.841548 
M 267.578182 201.841548 
L 270.196364 194.037677 
M 270.196364 194.037677 
L 272.814545 186.233806 
M 272.814545 186.233806 
L 275.432727 178.429935 
M 275.432727 178.429935 
L 278.050909 170.626065 
M 278.050909 170.626065 
L 280.669091 162.822194 
M 280.669091 162.822194 
L 283.287273 155.018323 
M 283.287273 155.018323 
L 285.905455 147.214452 
M 285.905455 147.214452 
L 288.523636 139.410581 
M 288.523636 139.410581 
L 291.141818 131.60671 
M 291.141818 131.60671 
L 293.76 123.802839 
M 293.76 123.802839 
L 296.378182 115.998968 
M 296.378182 115.998968 
L 298.996364 108.195097 
M 298.996364 108.195097 
L 301.614545 100.391226 
M 301.614545 100.391226 
L 304.232727 92.587355 
M 304.232727 92.587355 
L 306.850909 84.783484 
M 306.850909 84.783484 
L 309.469091 76.979613 
M 309.469091 76.979613 
L 312.087273 69.175742 
M 312.087273 69.175742 
L 314.705455 61.371871 
M 314.705455 61.371871 
L 317.323636 53.568 
M 317.323636 53.568 
L 319.941818 61.371871 
M 319.941818 61.371871 
L 322.56 69.175742 
M 322.56 69.175742 
L 325.178182 76.979613 
M 325.178182 76.979613 
L 327.796364 84.783484 
M 327.796364 84.783484 
L 330.414545 92.587355 
M 330.414545 92.587355 
L 333.032727 100.391226 
M 333.032727 100.391226 
L 335.650909 108.195097 
M 335.650909 108.195097 
L 338.269091 115.998968 
M 338.269091 115.998968 
L 340.887273 123.802839 
M 340.887273 123.802839 
L 343.505455 131.60671 
M 343.505455 131.60671 
L 346.123636 139.410581 
M 346.123636 139.410581 
L 348.741818 147.214452 
M 348.741818 147.214452 
L 351.36 155.018323 
M 351.36 155.018323 
L 353.978182 162.822194 
M 353.978182 162.822194 
L 356.596364 170.626065 
M 356.596364 170.626065 
L 359.214545 178.429935 
M 359.214545 178.429935 
L 361.832727 186.233806 
M 361.832727 186.233806 
L 364.450909 194.037677 
M 364.450909 194.037677 
L 367.069091 201.841548 
M 367.069091 201.841548 
L 369.687273 209.645419 
M 369.687273 209.645419 
L 372.305455 217.44929 
M 372.305455 217.44929 
L 374.923636 225.253161 
M 374.923636 225.253161 
L 377.541818 233.057032 
M 377.541818 233.057032 
L 380.16 240.860903 
M 380.16 240.860903 
L 382.778182 248.664774 
M 382.778182 248.664774 
L 385.396364 256.468645 
M 385.396364 256.468645 
L 388.014545 264.272516 
M 388.014545 264.272516 
L 390.632727 272.076387 
M 390.632727 272.076387 
L 393.250909 279.880258 
M 393.250909 279.880258 
L 395.869091 287.684129 
M 395.869091 287.684129 
L 398.487273 295.488 
L 398.487273 295.488 
" clip-path="url(#p9ce2eeedc2)" style="fill: none; stroke: #d62728; stroke-width: 1.5; stroke-linecap: square"/>
   </g>
   <g id="line2d_16">
    <path d="M 73.832727 295.488 
L 76.450909 295.488 
M 76.450909 295.488 
L 79.069091 295.488 
M 79.069091 295.488 
L 81.687273 295.488 
M 81.687273 295.488 
L 84.305455 295.488 
M 84.305455 295.488 
L 86.923636 295.488 
M 86.923636 295.488 
L 89.541818 295.488 
M 89.541818 295.488 
L 92.16 295.488 
M 92.16 295.488 
L 94.778182 295.488 
M 94.778182 295.488 
L 97.396364 295.488 
M 97.396364 295.488 
L 100.014545 295.488 
M 100.014545 295.488 
L 102.632727 295.488 
M 102.632727 295.488 
L 105.250909 295.488 
M 105.250909 295.488 
L 107.869091 295.488 
M 107.869091 295.488 
L 110.487273 295.488 
M 110.487273 295.488 
L 113.105455 295.488 
M 113.105455 295.488 
L 115.723636 295.488 
M 115.723636 295.488 
L 118.341818 295.488 
M 118.341818 295.488 
L 120.96 295.488 
M 120.96 295.488 
L 123.578182 295.488 
M 123.578182 295.488 
L 126.196364 295.488 
M 126.196364 295.488 
L 128.814545 295.488 
M 128.814545 295.488 
L 131.432727 295.488 
M 131.432727 295.488 
L 134.050909 295.488 
M 134.050909 295.488 
L 136.669091 295.488 
M 136.669091 295.488 
L 139.287273 295.488 
M 139.287273 295.488 
L 141.905455 295.488 
M 141.905455 295.488 
L 144.523636 295.488 
M 144.523636 295.488 
L 147.141818 295.488 
M 147.141818 295.488 
L 149.76 295.488 
M 149.76 295.488 
L 152.378182 295.488 
M 152.378182 295.488 
L 154.996364 295.488 
M 154.996364 295.488 
L 157.614545 295.488 
M 157.614545 295.488 
L 160.232727 295.488 
M 160.232727 295.488 
L 162.850909 295.488 
M 162.850909 295.488 
L 165.469091 295.488 
M 165.469091 295.488 
L 168.087273 295.488 
M 168.087273 295.488 
L 170.705455 295.488 
M 170.705455 295.488 
L 173.323636 295.488 
M 173.323636 295.488 
L 175.941818 295.488 
M 175.941818 295.488 
L 178.56 295.488 
M 178.56 295.488 
L 181.178182 295.488 
M 181.178182 295.488 
L 183.796364 295.488 
M 183.796364 295.488 
L 186.414545 295.488 
M 186.414545 295.488 
L 189.032727 295.488 
M 189.032727 295.488 
L 191.650909 295.488 
M 191.650909 295.488 
L 194.269091 295.488 
M 194.269091 295.488 
L 196.887273 295.488 
M 196.887273 295.488 
L 199.505455 295.488 
M 199.505455 295.488 
L 202.123636 295.488 
M 202.123636 295.488 
L 204.741818 295.488 
M 204.741818 295.488 
L 207.36 295.488 
M 207.36 295.488 
L 209.978182 295.488 
M 209.978182 295.488 
L 212.596364 295.488 
M 212.596364 295.488 
L 215.214545 295.488 
M 215.214545 295.488 
L 217.832727 295.488 
M 217.832727 295.488 
L 220.450909 295.488 
M 220.450909 295.488 
L 223.069091 295.488 
M 223.069091 295.488 
L 225.687273 295.488 
M 225.687273 295.488 
L 228.305455 295.488 
M 228.305455 295.488 
L 230.923636 295.488 
M 230.923636 295.488 
L 233.541818 295.488 
M 233.541818 295.488 
L 236.16 295.488 
M 236.16 295.488 
L 238.778182 295.488 
M 238.778182 295.488 
L 241.396364 295.488 
M 241.396364 295.488 
L 244.014545 295.488 
M 244.014545 295.488 
L 246.632727 295.488 
M 246.632727 295.488 
L 249.250909 295.488 
M 249.250909 295.488 
L 251.869091 295.488 
M 251.869091 295.488 
L 254.487273 295.488 
M 254.487273 295.488 
L 257.105455 295.488 
M 257.105455 295.488 
L 259.723636 295.488 
M 259.723636 295.488 
L 262.341818 295.488 
M 262.341818 295.488 
L 264.96 295.488 
M 264.96 295.488 
L 267.578182 295.488 
M 267.578182 295.488 
L 270.196364 295.488 
M 270.196364 295.488 
L 272.814545 295.488 
M 272.814545 295.488 
L 275.432727 295.488 
M 275.432727 295.488 
L 278.050909 295.488 
M 278.050909 295.488 
L 280.669091 295.488 
M 280.669091 295.488 
L 283.287273 295.488 
M 283.287273 295.488 
L 285.905455 295.488 
M 285.905455 295.488 
L 288.523636 295.488 
M 288.523636 295.488 
L 291.141818 295.488 
M 291.141818 295.488 
L 293.76 295.488 
M 293.76 295.488 
L 296.378182 295.488 
M 296.378182 295.488 
L 298.996364 295.488 
M 298.996364 295.488 
L 301.614545 295.488 
M 301.614545 295.488 
L 304.232727 295.488 
M 304.232727 295.488 
L 306.850909 295.488 
M 306.850909 295.488 
L 309.469091 295.488 
M 309.469091 295.488 
L 312.087273 295.488 
M 312.087273 295.488 
L 314.705455 295.488 
M 314.705455 295.488 
L 317.323636 295.488 
M 317.323636 295.488 
L 319.941818 287.684129 
M 319.941818 287.684129 
L 322.56 279.880258 
M 322.56 279.880258 
L 325.178182 272.076387 
M 325.178182 272.076387 
L 327.796364 264.272516 
M 327.796364 264.272516 
L 330.414545 256.468645 
M 330.414545 256.468645 
L 333.032727 248.664774 
M 333.032727 248.664774 
L 335.650909 240.860903 
M 335.650909 240.860903 
L 338.269091 233.057032 
M 338.269091 233.057032 
L 340.887273 225.253161 
M 340.887273 225.253161 
L 343.505455 217.44929 
M 343.505455 217.44929 
L 346.123636 209.645419 
M 346.123636 209.645419 
L 348.741818 201.841548 
M 348.741818 201.841548 
L 351.36 194.037677 
M 351.36 194.037677 
L 353.978182 186.233806 
M 353.978182 186.233806 
L 356.596364 178.429935 
M 356.596364 178.429935 
L 359.214545 170.626065 
M 359.214545 170.626065 
L 361.832727 162.822194 
M 361.832727 162.822194 
L 364.450909 155.018323 
M 364.450909 155.018323 
L 367.069091 147.214452 
M 367.069091 147.214452 
L 369.687273 139.410581 
M 369.687273 139.410581 
L 372.305455 131.60671 
M 372.305455 131.60671 
L 374.923636 123.802839 
M 374.923636 123.802839 
L 377.541818 115.998968 
M 377.541818 115.998968 
L 380.16 108.195097 
M 380.16 108.195097 
L 382.778182 100.391226 
M 382.778182 100.391226 
L 385.396364 92.587355 
M 385.396364 92.587355 
L 388.014545 84.783484 
M 388.014545 84.783484 
L 390.632727 76.979613 
M 390.632727 76.979613 
L 393.250909 69.175742 
M 393.250909 69.175742 
L 395.869091 61.371871 
M 395.869091 61.371871 
L 398.487273 53.568 
L 398.487273 53.568 
" clip-path="url(#p9ce2eeedc2)" style="fill: none; stroke: #9467bd; stroke-width: 1.5; stroke-linecap: square"/>
   </g>
   <g id="patch_3">
    <path d="M 57.6 307.584 
L 57.6 41.472 
" style="fill: none; stroke: #888888; stroke-width: 0.8; stroke-linejoin: miter; stroke-linecap: square"/>
   </g>
   <g id="patch_4">
    <path d="M 414.72 307.584 
L 414.72 41.472 
" style="fill: none; stroke: #888888; stroke-width: 0.8; stroke-linejoin: miter; stroke-linecap: square"/>
   </g>
   <g id="patch_5">
    <path d="M 57.6 307.584 
L 414.72 307.584 
" style="fill: none; stroke: #888888; stroke-width: 0.8; stroke-linejoin: miter; stroke-linecap: square"/>
   </g>
   <g id="patch_6">
    <path d="M 57.6 41.472 
L 414.72 41.472 
" style="fill: none; stroke: #888888; stroke-width: 0.8; stroke-linejoin: miter; stroke-linecap: square"/>
   </g>
  </g>
 </g>
 <defs>
  <clipPath id="p9ce2eeedc2">
   <rect x="57.6" y="41.472" width="357.12" height="266.112"/>
  </clipPath>
 </defs>
</svg>
