<?xml version="1.0" encoding="utf-8" standalone="no"?>
<!DOCTYPE svg PUBLIC "-//W3C//DTD SVG 1.1//EN"
  "http://www.w3.org/Graphics/SVG/1.1/DTD/svg11.dtd">
<svg xmlns:xlink="http://www.w3.org/1999/xlink" width="460.8pt" height="345.6pt" viewBox="0 0 460.8 345.6" xmlns="http://www.w3.org/2000/svg" version="1.1">
 <defs>
  <style type="text/css">*{stroke-linejoin: round; stroke-linecap: butt}</style>
 </defs>
 <g id="figure_1">
  <g id="patch_1">
   <path d="M 0 345.6 
L 460.8 345.6 
L 460.8 0 
L 0 0 
L 0 345.6 
z
" style="fill: none"/>
  </g>
  <g id="axes_1">
   <g id="patch_2">
    <path d="M 57.6 307.584 
L 414.72 307.584 
L 414.72 41.472 
L 57.6 41.472 
z
" style="fill: #888888; fill-opacity: 0.133333"/>
   </g>
   <g id="matplotlib.axis_1">
    <g id="xtick_1">
     <g id="line2d_1">
      <defs>
       <path id="mf1f902f02e" d="M 0 0 
L 0 3.5 
" style="stroke: #888888; stroke-width: 0.8"/>
      </defs>
      <g>
       <use xlink:href="#mf1f902f02e" x="73.832727" y="307.584" style="fill: #888888; stroke: #888888; stroke-width: 0.8"/>
      </g>
     </g>
     <g id="text_1">
      <text style="fill: #888888; font: 10px 'sans-serif'; text-anchor: middle" x="73.832727" y="322.182437" transform="rotate(-0, 73.832727, 322.182437)">0.00</text>
     </g>
    </g>
    <g id="xtick_2">
     <g id="line2d_2">
      <g>
       <use xlink:href="#mf1f902f02e" x="154.996364" y="307.584" style="fill: #888888; stroke: #888888; stroke-width: 0.8"/>
      </g>
     </g>
     <g id="text_2">
      <text style="fill: #888888; font: 10px 'sans-serif'; text-anchor: middle" x="154.996364" y="322.182437" transform="rotate(-0, 154.996364, 322.182437)">0.25</text>
     </g>
    </g>
    <g id="xtick_3">
     <g id="line2d_3">
      <g>
       <use xlink:href="#mf1f902f02e" x="236.16" y="307.584" style="fill: #888888; stroke: #888888; stroke-width: 0.8"/>
      </g>
     </g>
     <g id="text_3">
      <text style="fill: #888888; font: 10px 'sans-serif'; text-anchor: middle" x="236.16" y="322.182437" transform="rotate(-0, 236.16, 322.182437)">0.50</text>
     </g>
    </g>
    <g id="xtick_4">
     <g id="line2d_4">
      <g>
       <use xlink:href="#mf1f902f02e" x="317.323636" y="307.584" style="fill: #888888; stroke: #888888; stroke-width: 0.8"/>
      </g>
     </g>
     <g id="text_4">
      <text style="fill: #888888; font: 10px 'sans-serif'; text-anchor: middle" x="317.323636" y="322.182437" transform="rotate(-0, 317.323636, 322.182437)">0.75</text>
     </g>
    </g>
    <g id="xtick_5">
     <g id="line2d_5">
      <g>
       <use xlink:href="#mf1f902f02e" x="398.487273" y="307.584" style="fill: #888888; stroke: #888888; stroke-width: 0.8"/>
      </g>
     </g>
     <g id="text_5">
      <text style="fill: #888888; font: 10px 'sans-serif'; text-anchor: middle" x="398.487273" y="322.182437" transform="rotate(-0, 398.487273, 322.182437)">1.00</text>
     </g>
    </g>
    <g id="text_6">
     <text style="fill: #888888; font: 10px 'sans-serif'; text-anchor: middle" x="236.16" y="335.684" transform="rotate(-0, 236.16, 335.684)">x_0</text>
    </g>
   </g>
   <g id="matplotlib.axis_2">
    <g id="ytick_1">
     <g id="line2d_6">
      <defs>
       <path id="m9b85410f47" d="M 0 0 
L -3.5 0 
" style="stroke: #888888; stroke-width: 0.8"/>
      </defs>
      <g>
       <use xlink:href="#m9b85410f47" x="57.6" y="295.488" style="fill: #888888; stroke: #888888; stroke-width: 0.8"/>
      </g>
     </g>
     <g id="text_7">
      <text style="fill: #888888; font: 10px 'sans-serif'; text-anchor: end" x="50.6" y="299.287219" transform="rotate(-0, 50.6, 299.287219)">0.0</text>
     </g>
    </g>
    <g id="ytick_2">
     <g id="line2d_7">
      <g>
       <use xlink:href="#m9b85410f47" x="57.6" y="247.104" style="fill: #888888; stroke: #888888; stroke-width: 0.8"/>
      </g>
     </g>
     <g id="text_8">
      <text style="fill: #888888; font: 10px 'sans-serif'; text-anchor: end" x="50.6" y="250.903219" transform="rotate(-0, 50.6, 250.903219)">0.2</text>
     </g>
    </g>
    <g id="ytick_3">
     <g id="line2d_8">
      <g>
       <use xlink:href="#m9b85410f47" x="57.6" y="198.72" style="fill: #888888; stroke: #888888; stroke-width: 0.8"/>
      </g>
     </g>
     <g id="text_9">
      <text style="fill: #888888; font: 10px 'sans-serif'; text-anchor: end" x="50.6" y="202.519219" transform="rotate(-0, 50.6, 202.519219)">0.4</text>
     </g>
    </g>
    <g id="ytick_4">
     <g id="line2d_9">
      <g>
       <use xlink:href="#m9b85410f47" x="57.6" y="150.336" style="fill: #888888; stroke: #888888; stroke-width: 0.8"/>
      </g>
     </g>
     <g id="text_10">
      <text style="fill: #888888; font: 10px 'sans-serif'; text-anchor: end" x="50.6" y="154.135219" transform="rotate(-0, 50.6, 154.135219)">0.6</text>
     </g>
    </g>
    <g id="ytick_5">
     <g id="line2d_10">
      <g>
       <use xlink:href="#m9b85410f47" x="57.6" y="101.952" style="fill: #888888; stroke: #888888; stroke-width: 0.8"/>
      </g>
     </g>
     <g id="text_11">
      <text style="fill: #888888; font: 10px 'sans-serif'; text-anchor: end" x="50.6" y="105.751219" transform="rotate(-0, 50.6, 105.751219)">0.8</text>
     </g>
    </g>
    <g id="ytick_6">
     <g id="line2d_11">
      <g>
       <use xlink:href="#m9b85410f47" x="57.6" y="53.568" style="fill: #888888; stroke: #888888; stroke-width: 0.8"/>
      </g>
     </g>
     <g id="text_12">
      <text style="fill: #888888; font: 10px 'sans-serif'; text-anchor: end" x="50.6" y="57.367219" transform="rotate(-0, 50.6, 57.367219)">1.0</text>
     </g>
    </g>
   </g>
   <g id="line2d_12">
    <path d="M 73.832727 295.488 
L 76.450909 293.537032 
M 76.450909 293.537032 
L 79.069091 291.586065 
M 79.069091 291.586065 
L 81.687273 289.635097 
M 81.687273 289.635097 
L 84.305455 287.684129 
M 84.305455 287.684129 
L 86.923636 285.733161 
M 86.923636 285.733161 
L 89.541818 283.782194 
M 89.541818 283.782194 
L 92.16 281.831226 
M 92.16 281.831226 
L 94.778182 279.880258 
M 94.778182 279.880258 
L 97.396364 277.92929 
M 97.396364 277.92929 
L 100.014545 275.978323 
M 100.014545 275.978323 
L 102.632727 274.027355 
M 102.632727 274.027355 
L 105.250909 272.076387 
M 105.250909 272.076387 
L 107.869091 270.125419 
M 107.869091 270.125419 
L 110.487273 268.174452 
M 110.487273 268.174452 
L 113.105455 266.223484 
M 113.105455 266.223484 
L 115.723636 264.272516 
M 115.723636 264.272516 
L 118.341818 262.321548 
M 118.341818 262.321548 
L 120.96 260.370581 
M 120.96 260.370581 
L 123.578182 258.419613 
M 123.578182 258.419613 
L 126.196364 256.468645 
M 126.196364 256.468645 
L 128.814545 254.517677 
M 128.814545 254.517677 
L 131.432727 252.56671 
M 131.432727 252.56671 
L 134.050909 250.615742 
M 134.050909 250.615742 
L 136.669091 248.664774 
M 136.669091 248.664774 
L 139.287273 246.713806 
M 139.287273 246.713806 
L 141.905455 244.762839 
M 141.905455 244.762839 
L 144.523636 242.811871 
M 144.523636 242.811871 
L 147.141818 240.860903 
M 147.141818 240.860903 
L 149.76 238.909935 
M 149.76 238.909935 
L 152.378182 236.958968 
M 152.378182 236.958968 
L 154.996364 235.008 
M 154.996364 235.008 
L 157.614545 233.057032 
M 157.614545 233.057032 
L 160.232727 231.106065 
M 160.232727 231.106065 
L 162.850909 229.155097 
M 162.850909 229.155097 
L 165.469091 227.204129 
M 165.469091 227.204129 
L 168.087273 225.253161 
M 168.087273 225.253161 
L 170.705455 223.302194 
M 170.705455 223.302194 
L 173.323636 221.351226 
M 173.323636 221.351226 
L 175.941818 219.400258 
M 175.941818 219.400258 
L 178.56 217.44929 
M 178.56 217.44929 
L 181.178182 215.498323 
M 181.178182 215.498323 
L 183.796364 213.547355 
M 183.796364 213.547355 
L 186.414545 211.596387 
M 186.414545 211.596387 
L 189.032727 209.645419 
M 189.032727 209.645419 
L 191.650909 207.694452 
M 191.650909 207.694452 
L 194.269091 205.743484 
M 194.269091 205.743484 
L 196.887273 203.792516 
M 196.887273 203.792516 
L 199.505455 201.841548 
M 199.505455 201.841548 
L 202.123636 199.890581 
M 202.123636 199.890581 
L 204.741818 197.939613 
M 204.741818 197.939613 
L 207.36 195.988645 
M 207.36 195.988645 
L 209.978182 194.037677 
M 209.978182 194.037677 
L 212.596364 192.08671 
M 212.596364 192.08671 
L 215.214545 190.135742 
M 215.214545 190.135742 
L 217.832727 188.184774 
M 217.832727 188.184774 
L 220.450909 186.233806 
M 220.450909 186.233806 
L 223.069091 184.282839 
M 223.069091 184.282839 
L 225.687273 182.331871 
M 225.687273 182.331871 
L 228.305455 180.380903 
M 228.305455 180.380903 
L 230.923636 178.429935 
M 230.923636 178.429935 
L 233.541818 176.478968 
M 233.541818 176.478968 
L 236.16 174.528 
M 236.16 174.528 
L 238.778182 172.577032 
M 238.778182 172.577032 
L 241.396364 170.626065 
M 241.396364 170.626065 
L 244.014545 168.675097 
M 244.014545 168.675097 
L 246.632727 166.724129 
M 246.632727 166.724129 
L 249.250909 164.773161 
M 249.250909 164.773161 
L 251.869091 162.822194 
M 251.869091 162.822194 
L 254.487273 160.871226 
M 254.487273 160.871226 
L 257.105455 158.920258 
M 257.105455 158.920258 
L 259.723636 156.96929 
M 259.723636 156.96929 
L 262.341818 155.018323 
M 262.341818 155.018323 
L 264.96 153.067355 
M 264.96 153.067355 
L 267.578182 151.116387 
M 267.578182 151.116387 
L 270.196364 149.165419 
M 270.196364 149.165419 
L 272.814545 147.214452 
M 272.814545 147.214452 
L 275.432727 145.263484 
M 275.432727 145.263484 
L 278.050909 143.312516 
M 278.050909 143.312516 
L 280.669091 141.361548 
M 280.669091 141.361548 
L 283.287273 139.410581 
M 283.287273 139.410581 
L 285.905455 137.459613 
M 285.905455 137.459613 
L 288.523636 135.508645 
M 288.523636 135.508645 
L 291.141818 133.557677 
M 291.141818 133.557677 
L 293.76 131.60671 
M 293.76 131.60671 
L 296.378182 129.655742 
M 296.378182 129.655742 
L 298.996364 127.704774 
M 298.996364 127.704774 
L 301.614545 125.753806 
M 301.614545 125.753806 
L 304.232727 123.802839 
M 304.232727 123.802839 
L 306.850909 121.851871 
M 306.850909 121.851871 
L 309.469091 119.900903 
M 309.469091 119.900903 
L 312.087273 117.949935 
M 312.087273 117.949935 
L 314.705455 115.998968 
M 314.705455 115.998968 
L 317.323636 114.048 
M 317.323636 114.048 
L 319.941818 112.097032 
M 319.941818 112.097032 
L 322.56 110.146065 
M 322.56 110.146065 
L 325.178182 108.195097 
M 325.178182 108.195097 
L 327.796364 106.244129 
M 327.796364 106.244129 
L 330.414545 104.293161 
M 330.414545 104.293161 
L 333.032727 102.342194 
M 333.032727 102.342194 
L 335.650909 100.391226 
M 335.650909 100.391226 
L 338.269091 98.440258 
M 338.269091 98.440258 
L 340.887273 96.48929 
M 340.887273 96.48929 
L 343.505455 94.538323 
M 343.505455 94.538323 
L 346.123636 92.587355 
M 346.123636 92.587355 
L 348.741818 90.636387 
M 348.741818 90.636387 
L 351.36 88.685419 
M 351.36 88.685419 
L 353.978182 86.734452 
M 353.978182 86.734452 
L 356.596364 84.783484 
M 356.596364 84.783484 
L 359.214545 82.832516 
M 359.214545 82.832516 
L 361.832727 80.881548 
M 361.832727 80.881548 
L 364.450909 78.930581 
M 364.450909 78.930581 
L 367.069091 76.979613 
M 367.069091 76.979613 
L 369.687273 75.028645 
M 369.687273 75.028645 
L 372.305455 73.077677 
M 372.305455 73.077677 
L 374.923636 71.12671 
M 374.923636 71.12671 
L 377.541818 69.175742 
M 377.541818 69.175742 
L 380.16 67.224774 
M 380.16 67.224774 
L 382.778182 65.273806 
M 382.778182 65.273806 
L 385.396364 63.322839 
M 385.396364 63.322839 
L 388.014545 61.371871 
M 388.014545 61.371871 
L 390.632727 59.420903 
M 390.632727 59.420903 
L 393.250909 57.469935 
M 393.250909 57.469935 
L 395.869091 55.518968 
M 395.869091 55.518968 
L 398.487273 53.568 
L 398.487273 53.568 
" clip-path="url(#pf505eaf84c)" style="fill: none; stroke: #1f77b4; stroke-width: 1.5; stroke-linecap: square"/>
   </g>
   <g id="patch_3">
    <path d="M 57.6 307.584 
L 57.6 41.472 
" style="fill: none; stroke: #888888; stroke-width: 0.8; stroke-linejoin: miter; stroke-linecap: square"/>
   </g>
   <g id="patch_4">
    <path d="M 414.72 307.584 
L 414.72 41.472 
" style="fill: none; stroke: #888888; stroke-width: 0.8; stroke-linejoin: miter; stroke-linecap: square"/>
   </g>
   <g id="patch_5">
    <path d="M 57.6 307.584 
L 414.72 307.584 
" style="fill: none; stroke: #888888; stroke-width: 0.8; stroke-linejoin: miter; stroke-linecap: square"/>
   </g>
   <g id="patch_6">
    <path d="M 57.6 41.472 
L 414.72 41.472 
" style="fill: none; stroke: #888888; stroke-width: 0.8; stroke-linejoin: miter; stroke-linecap: square"/>
   </g>
  </g>
 </g>
 <defs>
  <clipPath id="pf505eaf84c">
   <rect x="57.6" y="41.472" width="357.12" height="266.112"/>
  </clipPath>
 </defs>
</svg>
