<?xml version="1.0" encoding="utf-8" standalone="no"?>
<!DOCTYPE svg PUBLIC "-//W3C//DTD SVG 1.1//EN"
  "http://www.w3.org/Graphics/SVG/1.1/DTD/svg11.dtd">
<svg xmlns:xlink="http://www.w3.org/1999/xlink" width="460.8pt" height="345.6pt" viewBox="0 0 460.8 345.6" xmlns="http://www.w3.org/2000/svg" version="1.1">
 <defs>
  <style type="text/css">*{stroke-linejoin: round; stroke-linecap: butt}</style>
 </defs>
 <g id="figure_1">
  <g id="patch_1">
   <path d="M 0 345.6 
L 460.8 345.6 
L 460.8 0 
L 0 0 
L 0 345.6 
z
" style="fill: none"/>
  </g>
  <g id="axes_1">
   <g id="patch_2">
    <path d="M 57.6 307.584 
L 414.72 307.584 
L 414.72 41.472 
L 57.6 41.472 
z
" style="fill: #888888; fill-opacity: 0.133333"/>
   </g>
   <g id="matplotlib.axis_1">
    <g id="xtick_1">
     <g id="line2d_1">
      <defs>
       <path id="mf1f902f02e" d="M 0 0 
L 0 3.5 
" style="stroke: #888888; stroke-width: 0.8"/>
      </defs>
      <g>
       <use xlink:href="#mf1f902f02e" x="73.832727" y="307.584" style="fill: #888888; stroke: #888888; stroke-width: 0.8"/>
      </g>
     </g>
     <g id="text_1">
      <text style="fill: #888888; font: 10px 'DejaVu Sans', 'Bitstream Vera Sans', 'Computer Modern Sans Serif', 'Lucida Grande', 'Verdana', 'Geneva', 'Lucid', 'Arial', 'Helvetica', 'Avant Garde', sans-serif; text-anchor: middle" x="73.832727" y="322.182437" transform="rotate(-0 73.832727 322.182437)">0.00</text>
     </g>
    </g>
    <g id="xtick_2">
     <g id="line2d_2">
      <g>
       <use xlink:href="#mf1f902f02e" x="154.996364" y="307.584" style="fill: #888888; stroke: #888888; stroke-width: 0.8"/>
      </g>
     </g>
     <g id="text_2">
      <text style="fill: #888888; font: 10px 'DejaVu Sans', 'Bitstream Vera Sans', 'Computer Modern Sans Serif', 'Lucida Grande', 'Verdana', 'Geneva', 'Lucid', 'Arial', 'Helvetica', 'Avant Garde', sans-serif; text-anchor: middle" x="154.996364" y="322.182437" transform="rotate(-0 154.996364 322.182437)">0.25</text>
     </g>
    </g>
    <g id="xtick_3">
     <g id="line2d_3">
      <g>
       <use xlink:href="#mf1f902f02e" x="236.16" y="307.584" style="fill: #888888; stroke: #888888; stroke-width: 0.8"/>
      </g>
     </g>
     <g id="text_3">
      <text style="fill: #888888; font: 10px 'DejaVu Sans', 'Bitstream Vera Sans', 'Computer Modern Sans Serif', 'Lucida Grande', 'Verdana', 'Geneva', 'Lucid', 'Arial', 'Helvetica', 'Avant Garde', sans-serif; text-anchor: middle" x="236.16" y="322.182437" transform="rotate(-0 236.16 322.182437)">0.50</text>
     </g>
    </g>
    <g id="xtick_4">
     <g id="line2d_4">
      <g>
       <use xlink:href="#mf1f902f02e" x="317.323636" y="307.584" style="fill: #888888; stroke: #888888; stroke-width: 0.8"/>
      </g>
     </g>
     <g id="text_4">
      <text style="fill: #888888; font: 10px 'DejaVu Sans', 'Bitstream Vera Sans', 'Computer Modern Sans Serif', 'Lucida Grande', 'Verdana', 'Geneva', 'Lucid', 'Arial', 'Helvetica', 'Avant Garde', sans-serif; text-anchor: middle" x="317.323636" y="322.182437" transform="rotate(-0 317.323636 322.182437)">0.75</text>
     </g>
    </g>
    <g id="xtick_5">
     <g id="line2d_5">
      <g>
       <use xlink:href="#mf1f902f02e" x="398.487273" y="307.584" style="fill: #888888; stroke: #888888; stroke-width: 0.8"/>
      </g>
     </g>
     <g id="text_5">
      <text style="fill: #888888; font: 10px 'DejaVu Sans', 'Bitstream Vera Sans', 'Computer Modern Sans Serif', 'Lucida Grande', 'Verdana', 'Geneva', 'Lucid', 'Arial', 'Helvetica', 'Avant Garde', sans-serif; text-anchor: middle" x="398.487273" y="322.182437" transform="rotate(-0 398.487273 322.182437)">1.00</text>
     </g>
    </g>
    <g id="text_6">
     <text style="fill: #888888; font: 10px 'DejaVu Sans', 'Bitstream Vera Sans', 'Computer Modern Sans Serif', 'Lucida Grande', 'Verdana', 'Geneva', 'Lucid', 'Arial', 'Helvetica', 'Avant Garde', sans-serif; text-anchor: middle" x="236.16" y="335.684" transform="rotate(-0 236.16 335.684)">x_0</text>
    </g>
   </g>
   <g id="matplotlib.axis_2">
    <g id="ytick_1">
     <g id="line2d_6">
      <defs>
       <path id="m9b85410f47" d="M 0 0 
L -3.5 0 
" style="stroke: #888888; stroke-width: 0.8"/>
      </defs>
      <g>
       <use xlink:href="#m9b85410f47" x="57.6" y="295.488" style="fill: #888888; stroke: #888888; stroke-width: 0.8"/>
      </g>
     </g>
     <g id="text_7">
      <text style="fill: #888888; font: 10px 'DejaVu Sans', 'Bitstream Vera Sans', 'Computer Modern Sans Serif', 'Lucida Grande', 'Verdana', 'Geneva', 'Lucid', 'Arial', 'Helvetica', 'Avant Garde', sans-serif; text-anchor: end" x="50.6" y="299.287219" transform="rotate(-0 50.6 299.287219)">0.0</text>
     </g>
    </g>
    <g id="ytick_2">
     <g id="line2d_7">
      <g>
       <use xlink:href="#m9b85410f47" x="57.6" y="247.104" style="fill: #888888; stroke: #888888; stroke-width: 0.8"/>
      </g>
     </g>
     <g id="text_8">
      <text style="fill: #888888; font: 10px 'DejaVu Sans', 'Bitstream Vera Sans', 'Computer Modern Sans Serif', 'Lucida Grande', 'Verdana', 'Geneva', 'Lucid', 'Arial', 'Helvetica', 'Avant Garde', sans-serif; text-anchor: end" x="50.6" y="250.903219" transform="rotate(-0 50.6 250.903219)">0.2</text>
     </g>
    </g>
    <g id="ytick_3">
     <g id="line2d_8">
      <g>
       <use xlink:href="#m9b85410f47" x="57.6" y="198.72" style="fill: #888888; stroke: #888888; stroke-width: 0.8"/>
      </g>
     </g>
     <g id="text_9">
      <text style="fill: #888888; font: 10px 'DejaVu Sans', 'Bitstream Vera Sans', 'Computer Modern Sans Serif', 'Lucida Grande', 'Verdana', 'Geneva', 'Lucid', 'Arial', 'Helvetica', 'Avant Garde', sans-serif; text-anchor: end" x="50.6" y="202.519219" transform="rotate(-0 50.6 202.519219)">0.4</text>
     </g>
    </g>
    <g id="ytick_4">
     <g id="line2d_9">
      <g>
       <use xlink:href="#m9b85410f47" x="57.6" y="150.336" style="fill: #888888; stroke: #888888; stroke-width: 0.8"/>
      </g>
     </g>
     <g id="text_10">
      <text style="fill: #888888; font: 10px 'DejaVu Sans', 'Bitstream Vera Sans', 'Computer Modern Sans Serif', 'Lucida Grande', 'Verdana', 'Geneva', 'Lucid', 'Arial', 'Helvetica', 'Avant Garde', sans-serif; text-anchor: end" x="50.6" y="154.135219" transform="rotate(-0 50.6 154.135219)">0.6</text>
     </g>
    </g>
    <g id="ytick_5">
     <g id="line2d_10">
      <g>
       <use xlink:href="#m9b85410f47" x="57.6" y="101.952" style="fill: #888888; stroke: #888888; stroke-width: 0.8"/>
      </g>
     </g>
     <g id="text_11">
      <text style="fill: #888888; font: 10px 'DejaVu Sans', 'Bitstream Vera Sans', 'Computer Modern Sans Serif', 'Lucida Grande', 'Verdana', 'Geneva', 'Lucid', 'Arial', 'Helvetica', 'Avant Garde', sans-serif; text-anchor: end" x="50.6" y="105.751219" transform="rotate(-0 50.6 105.751219)">0.8</text>
     </g>
    </g>
    <g id="ytick_6">
     <g id="line2d_11">
      <g>
       <use xlink:href="#m9b85410f47" x="57.6" y="53.568" style="fill: #888888; stroke: #888888; stroke-width: 0.8"/>
      </g>
     </g>
     <g id="text_12">
      <text style="fill: #888888; font: 10px 'DejaVu Sans', 'Bitstream Vera Sans', 'Computer Modern Sans Serif', 'Lucida Grande', 'Verdana', 'Geneva', 'Lucid', 'Arial', 'Helvetica', 'Avant Garde', sans-serif; text-anchor: end" x="50.6" y="57.367219" transform="rotate(-0 50.6 57.367219)">1.0</text>
     </g>
    </g>
   </g>
   <g id="line2d_12">
    <path d="M 73.832727 53.568 
L 76.450909 68.924004 
M 76.450909 68.924004 
L 79.069091 83.776533 
M 79.069091 83.776533 
L 81.687273 98.125586 
M 81.687273 98.125586 
L 84.305455 111.971163 
M 84.305455 111.971163 
L 86.923636 125.313265 
M 86.923636 125.313265 
L 89.541818 138.151892 
M 89.541818 138.151892 
L 92.16 150.487043 
M 92.16 150.487043 
L 94.778182 162.318718 
M 94.778182 162.318718 
L 97.396364 173.646918 
M 97.396364 173.646918 
L 100.014545 184.471642 
M 100.014545 184.471642 
L 102.632727 194.792891 
M 102.632727 194.792891 
L 105.250909 204.610664 
M 105.250909 204.610664 
L 107.869091 213.924961 
M 107.869091 213.924961 
L 110.487273 222.735784 
M 110.487273 222.735784 
L 113.105455 231.04313 
M 113.105455 231.04313 
L 115.723636 238.847001 
M 115.723636 238.847001 
L 118.341818 246.147396 
M 118.341818 246.147396 
L 120.96 252.944316 
M 120.96 252.944316 
L 123.578182 259.237761 
M 123.578182 259.237761 
L 126.196364 265.027729 
M 126.196364 265.027729 
L 128.814545 270.314223 
M 128.814545 270.314223 
L 131.432727 275.09724 
M 131.432727 275.09724 
L 134.050909 279.376783 
M 134.050909 279.376783 
L 136.669091 283.152849 
M 136.669091 283.152849 
L 139.287273 286.42544 
M 139.287273 286.42544 
L 141.905455 289.194556 
M 141.905455 289.194556 
L 144.523636 291.460196 
M 144.523636 291.460196 
L 147.141818 293.22236 
M 147.141818 293.22236 
L 149.76 294.481049 
M 149.76 294.481049 
L 152.378182 295.236262 
M 152.378182 295.236262 
L 154.996364 295.488 
M 154.996364 295.488 
L 157.614545 295.488 
M 157.614545 295.488 
L 160.232727 295.488 
M 160.232727 295.488 
L 162.850909 295.488 
M 162.850909 295.488 
L 165.469091 295.488 
M 165.469091 295.488 
L 168.087273 295.488 
M 168.087273 295.488 
L 170.705455 295.488 
M 170.705455 295.488 
L 173.323636 295.488 
M 173.323636 295.488 
L 175.941818 295.488 
M 175.941818 295.488 
L 178.56 295.488 
M 178.56 295.488 
L 181.178182 295.488 
M 181.178182 295.488 
L 183.796364 295.488 
M 183.796364 295.488 
L 186.414545 295.488 
M 186.414545 295.488 
L 189.032727 295.488 
M 189.032727 295.488 
L 191.650909 295.488 
M 191.650909 295.488 
L 194.269091 295.488 
M 194.269091 295.488 
L 196.887273 295.488 
M 196.887273 295.488 
L 199.505455 295.488 
M 199.505455 295.488 
L 202.123636 295.488 
M 202.123636 295.488 
L 204.741818 295.488 
M 204.741818 295.488 
L 207.36 295.488 
M 207.36 295.488 
L 209.978182 295.488 
M 209.978182 295.488 
L 212.596364 295.488 
M 212.596364 295.488 
L 215.214545 295.488 
M 215.214545 295.488 
L 217.832727 295.488 
M 217.832727 295.488 
L 220.450909 295.488 
M 220.450909 295.488 
L 223.069091 295.488 
M 223.069091 295.488 
L 225.687273 295.488 
M 225.687273 295.488 
L 228.305455 295.488 
M 228.305455 295.488 
L 230.923636 295.488 
M 230.923636 295.488 
L 233.541818 295.488 
M 233.541818 295.488 
L 236.16 295.488 
M 236.16 295.488 
L 238.778182 295.488 
M 238.778182 295.488 
L 241.396364 295.488 
M 241.396364 295.488 
L 244.014545 295.488 
M 244.014545 295.488 
L 246.632727 295.488 
M 246.632727 295.488 
L 249.250909 295.488 
M 249.250909 295.488 
L 251.869091 295.488 
M 251.869091 295.488 
L 254.487273 295.488 
M 254.487273 295.488 
L 257.105455 295.488 
M 257.105455 295.488 
L 259.723636 295.488 
M 259.723636 295.488 
L 262.341818 295.488 
M 262.341818 295.488 
L 264.96 295.488 
M 264.96 295.488 
L 267.578182 295.488 
M 267.578182 295.488 
L 270.196364 295.488 
M 270.196364 295.488 
L 272.814545 295.488 
M 272.814545 295.488 
L 275.432727 295.488 
M 275.432727 295.488 
L 278.050909 295.488 
M 278.050909 295.488 
L 280.669091 295.488 
M 280.669091 295.488 
L 283.287273 295.488 
M 283.287273 295.488 
L 285.905455 295.488 
M 285.905455 295.488 
L 288.523636 295.488 
M 288.523636 295.488 
L 291.141818 295.488 
M 291.141818 295.488 
L 293.76 295.488 
M 293.76 295.488 
L 296.378182 295.488 
M 296.378182 295.488 
L 298.996364 295.488 
M 298.996364 295.488 
L 301.614545 295.488 
M 301.614545 295.488 
L 304.232727 295.488 
M 304.232727 295.488 
L 306.850909 295.488 
M 306.850909 295.488 
L 309.469091 295.488 
M 309.469091 295.488 
L 312.087273 295.488 
M 312.087273 295.488 
L 314.705455 295.488 
M 314.705455 295.488 
L 317.323636 295.488 
M 317.323636 295.488 
L 319.941818 295.488 
M 319.941818 295.488 
L 322.56 295.488 
M 322.56 295.488 
L 325.178182 295.488 
M 325.178182 295.488 
L 327.796364 295.488 
M 327.796364 295.488 
L 330.414545 295.488 
M 330.414545 295.488 
L 333.032727 295.488 
M 333.032727 295.488 
L 335.650909 295.488 
M 335.650909 295.488 
L 338.269091 295.488 
M 338.269091 295.488 
L 340.887273 295.488 
M 340.887273 295.488 
L 343.505455 295.488 
M 343.505455 295.488 
L 346.123636 295.488 
M 346.123636 295.488 
L 348.741818 295.488 
M 348.741818 295.488 
L 351.36 295.488 
M 351.36 295.488 
L 353.978182 295.488 
M 353.978182 295.488 
L 356.596364 295.488 
M 356.596364 295.488 
L 359.214545 295.488 
M 359.214545 295.488 
L 361.832727 295.488 
M 361.832727 295.488 
L 364.450909 295.488 
M 364.450909 295.488 
L 367.069091 295.488 
M 367.069091 295.488 
L 369.687273 295.488 
M 369.687273 295.488 
L 372.305455 295.488 
M 372.305455 295.488 
L 374.923636 295.488 
M 374.923636 295.488 
L 377.541818 295.488 
M 377.541818 295.488 
L 380.16 295.488 
M 380.16 295.488 
L 382.778182 295.488 
M 382.778182 295.488 
L 385.396364 295.488 
M 385.396364 295.488 
L 388.014545 295.488 
M 388.014545 295.488 
L 390.632727 295.488 
M 390.632727 295.488 
L 393.250909 295.488 
M 393.250909 295.488 
L 395.869091 295.488 
M 395.869091 295.488 
L 398.487273 295.488 
L 398.487273 295.488 
" clip-path="url(#p9ce2eeedc2)" style="fill: none; stroke: #1f77b4; stroke-width: 1.5; stroke-linecap: square"/>
   </g>
   <g id="line2d_13">
    <path d="M 73.832727 295.488 
L 76.450909 280.383734 
M 76.450909 280.383734 
L 79.069091 266.286418 
M 79.069091 266.286418 
L 81.687273 253.196054 
M 81.687273 253.196054 
L 84.305455 241.112641 
M 84.305455 241.112641 
L 86.923636 230.036179 
M 86.923636 230.036179 
L 89.541818 219.966668 
M 89.541818 219.966668 
L 92.16 210.904108 
M 92.16 210.904108 
L 94.778182 202.848499 
M 94.778182 202.848499 
L 97.396364 195.799842 
M 97.396364 195.799842 
L 100.014545 189.758135 
M 100.014545 189.758135 
L 102.632727 184.72338 
M 102.632727 184.72338 
L 105.250909 180.695575 
M 105.250909 180.695575 
L 107.869091 177.674722 
M 107.869091 177.674722 
L 110.487273 175.66082 
M 110.487273 175.66082 
L 113.105455 174.653869 
M 113.105455 174.653869 
L 115.723636 174.653869 
M 115.723636 174.653869 
L 118.341818 175.66082 
M 118.341818 175.66082 
L 120.96 177.674722 
M 120.96 177.674722 
L 123.578182 180.695575 
M 123.578182 180.695575 
L 126.196364 184.72338 
M 126.196364 184.72338 
L 128.814545 189.758135 
M 128.814545 189.758135 
L 131.432727 195.799842 
M 131.432727 195.799842 
L 134.050909 202.848499 
M 134.050909 202.848499 
L 136.669091 210.904108 
M 136.669091 210.904108 
L 139.287273 219.966668 
M 139.287273 219.966668 
L 141.905455 230.036179 
M 141.905455 230.036179 
L 144.523636 241.112641 
M 144.523636 241.112641 
L 147.141818 253.196054 
M 147.141818 253.196054 
L 149.76 266.286418 
M 149.76 266.286418 
L 152.378182 280.383734 
M 152.378182 280.383734 
L 154.996364 295.488 
M 154.996364 295.488 
L 157.614545 295.488 
M 157.614545 295.488 
L 160.232727 295.488 
M 160.232727 295.488 
L 162.850909 295.488 
M 162.850909 295.488 
L 165.469091 295.488 
M 165.469091 295.488 
L 168.087273 295.488 
M 168.087273 295.488 
L 170.705455 295.488 
M 170.705455 295.488 
L 173.323636 295.488 
M 173.323636 295.488 
L 175.941818 295.488 
M 175.941818 295.488 
L 178.56 295.488 
M 178.56 295.488 
L 181.178182 295.488 
M 181.178182 295.488 
L 183.796364 295.488 
M 183.796364 295.488 
L 186.414545 295.488 
M 186.414545 295.488 
L 189.032727 295.488 
M 189.032727 295.488 
L 191.650909 295.488 
M 191.650909 295.488 
L 194.269091 295.488 
M 194.269091 295.488 
L 196.887273 295.488 
M 196.887273 295.488 
L 199.505455 295.488 
M 199.505455 295.488 
L 202.123636 295.488 
M 202.123636 295.488 
L 204.741818 295.488 
M 204.741818 295.488 
L 207.36 295.488 
M 207.36 295.488 
L 209.978182 295.488 
M 209.978182 295.488 
L 212.596364 295.488 
M 212.596364 295.488 
L 215.214545 295.488 
M 215.214545 295.488 
L 217.832727 295.488 
M 217.832727 295.488 
L 220.450909 295.488 
M 220.450909 295.488 
L 223.069091 295.488 
M 223.069091 295.488 
L 225.687273 295.488 
M 225.687273 295.488 
L 228.305455 295.488 
M 228.305455 295.488 
L 230.923636 295.488 
M 230.923636 295.488 
L 233.541818 295.488 
M 233.541818 295.488 
L 236.16 295.488 
M 236.16 295.488 
L 238.778182 295.488 
M 238.778182 295.488 
L 241.396364 295.488 
M 241.396364 295.488 
L 244.014545 295.488 
M 244.014545 295.488 
L 246.632727 295.488 
M 246.632727 295.488 
L 249.250909 295.488 
M 249.250909 295.488 
L 251.869091 295.488 
M 251.869091 295.488 
L 254.487273 295.488 
M 254.487273 295.488 
L 257.105455 295.488 
M 257.105455 295.488 
L 259.723636 295.488 
M 259.723636 295.488 
L 262.341818 295.488 
M 262.341818 295.488 
L 264.96 295.488 
M 264.96 295.488 
L 267.578182 295.488 
M 267.578182 295.488 
L 270.196364 295.488 
M 270.196364 295.488 
L 272.814545 295.488 
M 272.814545 295.488 
L 275.432727 295.488 
M 275.432727 295.488 
L 278.050909 295.488 
M 278.050909 295.488 
L 280.669091 295.488 
M 280.669091 295.488 
L 283.287273 295.488 
M 283.287273 295.488 
L 285.905455 295.488 
M 285.905455 295.488 
L 288.523636 295.488 
M 288.523636 295.488 
L 291.141818 295.488 
M 291.141818 295.488 
L 293.76 295.488 
M 293.76 295.488 
L 296.378182 295.488 
M 296.378182 295.488 
L 298.996364 295.488 
M 298.996364 295.488 
L 301.614545 295.488 
M 301.614545 295.488 
L 304.232727 295.488 
M 304.232727 295.488 
L 306.850909 295.488 
M 306.850909 295.488 
L 309.469091 295.488 
M 309.469091 295.488 
L 312.087273 295.488 
M 312.087273 295.488 
L 314.705455 295.488 
M 314.705455 295.488 
L 317.323636 295.488 
M 317.323636 295.488 
L 319.941818 295.488 
M 319.941818 295.488 
L 322.56 295.488 
M 322.56 295.488 
L 325.178182 295.488 
M 325.178182 295.488 
L 327.796364 295.488 
M 327.796364 295.488 
L 330.414545 295.488 
M 330.414545 295.488 
L 333.032727 295.488 
M 333.032727 295.488 
L 335.650909 295.488 
M 335.650909 295.488 
L 338.269091 295.488 
M 338.269091 295.488 
L 340.887273 295.488 
M 340.887273 295.488 
L 343.505455 295.488 
M 343.505455 295.488 
L 346.123636 295.488 
M 346.123636 295.488 
L 348.741818 295.488 
M 348.741818 295.488 
L 351.36 295.488 
M 351.36 295.488 
L 353.978182 295.488 
M 353.978182 295.488 
L 356.596364 295.488 
M 356.596364 295.488 
L 359.214545 295.488 
M 359.214545 295.488 
L 361.832727 295.488 
M 361.832727 295.488 
L 364.450909 295.488 
M 364.450909 295.488 
L 367.069091 295.488 
M 367.069091 295.488 
L 369.687273 295.488 
M 369.687273 295.488 
L 372.305455 295.488 
M 372.305455 295.488 
L 374.923636 295.488 
M 374.923636 295.488 
L 377.541818 295.488 
M 377.541818 295.488 
L 380.16 295.488 
M 380.16 295.488 
L 382.778182 295.488 
M 382.778182 295.488 
L 385.396364 295.488 
M 385.396364 295.488 
L 388.014545 295.488 
M 388.014545 295.488 
L 390.632727 295.488 
M 390.632727 295.488 
L 393.250909 295.488 
M 393.250909 295.488 
L 395.869091 295.488 
M 395.869091 295.488 
L 398.487273 295.488 
L 398.487273 295.488 
" clip-path="url(#p9ce2eeedc2)" style="fill: none; stroke: #ff7f0e; stroke-width: 1.5; stroke-linecap: square"/>
   </g>
   <g id="line2d_14">
    <path d="M 73.832727 295.488 
L 76.450909 295.236262 
M 76.450909 295.236262 
L 79.069091 294.481049 
M 79.069091 294.481049 
L 81.687273 293.22236 
M 81.687273 293.22236 
L 84.305455 291.460196 
M 84.305455 291.460196 
L 86.923636 289.194556 
M 86.923636 289.194556 
L 89.541818 286.42544 
M 89.541818 286.42544 
L 92.16 283.152849 
M 92.16 283.152849 
L 94.778182 279.376783 
M 94.778182 279.376783 
L 97.396364 275.09724 
M 97.396364 275.09724 
L 100.014545 270.314223 
M 100.014545 270.314223 
L 102.632727 265.027729 
M 102.632727 265.027729 
L 105.250909 259.237761 
M 105.250909 259.237761 
L 107.869091 252.944316 
M 107.869091 252.944316 
L 110.487273 246.147396 
M 110.487273 246.147396 
L 113.105455 238.847001 
M 113.105455 238.847001 
L 115.723636 231.04313 
M 115.723636 231.04313 
L 118.341818 222.735784 
M 118.341818 222.735784 
L 120.96 213.924961 
M 120.96 213.924961 
L 123.578182 204.610664 
M 123.578182 204.610664 
L 126.196364 194.792891 
M 126.196364 194.792891 
L 128.814545 184.471642 
M 128.814545 184.471642 
L 131.432727 173.646918 
M 131.432727 173.646918 
L 134.050909 162.318718 
M 134.050909 162.318718 
L 136.669091 150.487043 
M 136.669091 150.487043 
L 139.287273 138.151892 
M 139.287273 138.151892 
L 141.905455 125.313265 
M 141.905455 125.313265 
L 144.523636 111.971163 
M 144.523636 111.971163 
L 147.141818 98.125586 
M 147.141818 98.125586 
L 149.76 83.776533 
M 149.76 83.776533 
L 152.378182 68.924004 
M 152.378182 68.924004 
L 154.996364 53.568 
M 154.996364 53.568 
L 157.614545 68.924004 
M 157.614545 68.924004 
L 160.232727 83.776533 
M 160.232727 83.776533 
L 162.850909 98.125586 
M 162.850909 98.125586 
L 165.469091 111.971163 
M 165.469091 111.971163 
L 168.087273 125.313265 
M 168.087273 125.313265 
L 170.705455 138.151892 
M 170.705455 138.151892 
L 173.323636 150.487043 
M 173.323636 150.487043 
L 175.941818 162.318718 
M 175.941818 162.318718 
L 178.56 173.646918 
M 178.56 173.646918 
L 181.178182 184.471642 
M 181.178182 184.471642 
L 183.796364 194.792891 
M 183.796364 194.792891 
L 186.414545 204.610664 
M 186.414545 204.610664 
L 189.032727 213.924961 
M 189.032727 213.924961 
L 191.650909 222.735784 
M 191.650909 222.735784 
L 194.269091 231.04313 
M 194.269091 231.04313 
L 196.887273 238.847001 
M 196.887273 238.847001 
L 199.505455 246.147396 
M 199.505455 246.147396 
L 202.123636 252.944316 
M 202.123636 252.944316 
L 204.741818 259.237761 
M 204.741818 259.237761 
L 207.36 265.027729 
M 207.36 265.027729 
L 209.978182 270.314223 
M 209.978182 270.314223 
L 212.596364 275.09724 
M 212.596364 275.09724 
L 215.214545 279.376783 
M 215.214545 279.376783 
L 217.832727 283.152849 
M 217.832727 283.152849 
L 220.450909 286.42544 
M 220.450909 286.42544 
L 223.069091 289.194556 
M 223.069091 289.194556 
L 225.687273 291.460196 
M 225.687273 291.460196 
L 228.305455 293.22236 
M 228.305455 293.22236 
L 230.923636 294.481049 
M 230.923636 294.481049 
L 233.541818 295.236262 
M 233.541818 295.236262 
L 236.16 295.488 
M 236.16 295.488 
L 238.778182 295.488 
M 238.778182 295.488 
L 241.396364 295.488 
M 241.396364 295.488 
L 244.014545 295.488 
M 244.014545 295.488 
L 246.632727 295.488 
M 246.632727 295.488 
L 249.250909 295.488 
M 249.250909 295.488 
L 251.869091 295.488 
M 251.869091 295.488 
L 254.487273 295.488 
M 254.487273 295.488 
L 257.105455 295.488 
M 257.105455 295.488 
L 259.723636 295.488 
M 259.723636 295.488 
L 262.341818 295.488 
M 262.341818 295.488 
L 264.96 295.488 
M 264.96 295.488 
L 267.578182 295.488 
M 267.578182 295.488 
L 270.196364 295.488 
M 270.196364 295.488 
L 272.814545 295.488 
M 272.814545 295.488 
L 275.432727 295.488 
M 275.432727 295.488 
L 278.050909 295.488 
M 278.050909 295.488 
L 280.669091 295.488 
M 280.669091 295.488 
L 283.287273 295.488 
M 283.287273 295.488 
L 285.905455 295.488 
M 285.905455 295.488 
L 288.523636 295.488 
M 288.523636 295.488 
L 291.141818 295.488 
M 291.141818 295.488 
L 293.76 295.488 
M 293.76 295.488 
L 296.378182 295.488 
M 296.378182 295.488 
L 298.996364 295.488 
M 298.996364 295.488 
L 301.614545 295.488 
M 301.614545 295.488 
L 304.232727 295.488 
M 304.232727 295.488 
L 306.850909 295.488 
M 306.850909 295.488 
L 309.469091 295.488 
M 309.469091 295.488 
L 312.087273 295.488 
M 312.087273 295.488 
L 314.705455 295.488 
M 314.705455 295.488 
L 317.323636 295.488 
M 317.323636 295.488 
L 319.941818 295.488 
M 319.941818 295.488 
L 322.56 295.488 
M 322.56 295.488 
L 325.178182 295.488 
M 325.178182 295.488 
L 327.796364 295.488 
M 327.796364 295.488 
L 330.414545 295.488 
M 330.414545 295.488 
L 333.032727 295.488 
M 333.032727 295.488 
L 335.650909 295.488 
M 335.650909 295.488 
L 338.269091 295.488 
M 338.269091 295.488 
L 340.887273 295.488 
M 340.887273 295.488 
L 343.505455 295.488 
M 343.505455 295.488 
L 346.123636 295.488 
M 346.123636 295.488 
L 348.741818 295.488 
M 348.741818 295.488 
L 351.36 295.488 
M 351.36 295.488 
L 353.978182 295.488 
M 353.978182 295.488 
L 356.596364 295.488 
M 356.596364 295.488 
L 359.214545 295.488 
M 359.214545 295.488 
L 361.832727 295.488 
M 361.832727 295.488 
L 364.450909 295.488 
M 364.450909 295.488 
L 367.069091 295.488 
M 367.069091 295.488 
L 369.687273 295.488 
M 369.687273 295.488 
L 372.305455 295.488 
M 372.305455 295.488 
L 374.923636 295.488 
M 374.923636 295.488 
L 377.541818 295.488 
M 377.541818 295.488 
L 380.16 295.488 
M 380.16 295.488 
L 382.778182 295.488 
M 382.778182 295.488 
L 385.396364 295.488 
M 385.396364 295.488 
L 388.014545 295.488 
M 388.014545 295.488 
L 390.632727 295.488 
M 390.632727 295.488 
L 393.250909 295.488 
M 393.250909 295.488 
L 395.869091 295.488 
M 395.869091 295.488 
L 398.487273 295.488 
L 398.487273 295.488 
" clip-path="url(#p9ce2eeedc2)" style="fill: none; stroke: #2ca02c; stroke-width: 1.5; stroke-linecap: square"/>
   </g>
   <g id="line2d_15">
    <path d="M 73.832727 295.488 
L 76.450909 295.488 
M 76.450909 295.488 
L 79.069091 295.488 
M 79.069091 295.488 
L 81.687273 295.488 
M 81.687273 295.488 
L 84.305455 295.488 
M 84.305455 295.488 
L 86.923636 295.488 
M 86.923636 295.488 
L 89.541818 295.488 
M 89.541818 295.488 
L 92.16 295.488 
M 92.16 295.488 
L 94.778182 295.488 
M 94.778182 295.488 
L 97.396364 295.488 
M 97.396364 295.488 
L 100.014545 295.488 
M 100.014545 295.488 
L 102.632727 295.488 
M 102.632727 295.488 
L 105.250909 295.488 
M 105.250909 295.488 
L 107.869091 295.488 
M 107.869091 295.488 
L 110.487273 295.488 
M 110.487273 295.488 
L 113.105455 295.488 
M 113.105455 295.488 
L 115.723636 295.488 
M 115.723636 295.488 
L 118.341818 295.488 
M 118.341818 295.488 
L 120.96 295.488 
M 120.96 295.488 
L 123.578182 295.488 
M 123.578182 295.488 
L 126.196364 295.488 
M 126.196364 295.488 
L 128.814545 295.488 
M 128.814545 295.488 
L 131.432727 295.488 
M 131.432727 295.488 
L 134.050909 295.488 
M 134.050909 295.488 
L 136.669091 295.488 
M 136.669091 295.488 
L 139.287273 295.488 
M 139.287273 295.488 
L 141.905455 295.488 
M 141.905455 295.488 
L 144.523636 295.488 
M 144.523636 295.488 
L 147.141818 295.488 
M 147.141818 295.488 
L 149.76 295.488 
M 149.76 295.488 
L 152.378182 295.488 
M 152.378182 295.488 
L 154.996364 295.488 
M 154.996364 295.488 
L 157.614545 280.383734 
M 157.614545 280.383734 
L 160.232727 266.286418 
M 160.232727 266.286418 
L 162.850909 253.196054 
M 162.850909 253.196054 
L 165.469091 241.112641 
M 165.469091 241.112641 
L 168.087273 230.036179 
M 168.087273 230.036179 
L 170.705455 219.966668 
M 170.705455 219.966668 
L 173.323636 210.904108 
M 173.323636 210.904108 
L 175.941818 202.848499 
M 175.941818 202.848499 
L 178.56 195.799842 
M 178.56 195.799842 
L 181.178182 189.758135 
M 181.178182 189.758135 
L 183.796364 184.72338 
M 183.796364 184.72338 
L 186.414545 180.695575 
M 186.414545 180.695575 
L 189.032727 177.674722 
M 189.032727 177.674722 
L 191.650909 175.66082 
M 191.650909 175.66082 
L 194.269091 174.653869 
M 194.269091 174.653869 
L 196.887273 174.653869 
M 196.887273 174.653869 
L 199.505455 175.66082 
M 199.505455 175.66082 
L 202.123636 177.674722 
M 202.123636 177.674722 
L 204.741818 180.695575 
M 204.741818 180.695575 
L 207.36 184.72338 
M 207.36 184.72338 
L 209.978182 189.758135 
M 209.978182 189.758135 
L 212.596364 195.799842 
M 212.596364 195.799842 
L 215.214545 202.848499 
M 215.214545 202.848499 
L 217.832727 210.904108 
M 217.832727 210.904108 
L 220.450909 219.966668 
M 220.450909 219.966668 
L 223.069091 230.036179 
M 223.069091 230.036179 
L 225.687273 241.112641 
M 225.687273 241.112641 
L 228.305455 253.196054 
M 228.305455 253.196054 
L 230.923636 266.286418 
M 230.923636 266.286418 
L 233.541818 280.383734 
M 233.541818 280.383734 
L 236.16 295.488 
M 236.16 295.488 
L 238.778182 295.488 
M 238.778182 295.488 
L 241.396364 295.488 
M 241.396364 295.488 
L 244.014545 295.488 
M 244.014545 295.488 
L 246.632727 295.488 
M 246.632727 295.488 
L 249.250909 295.488 
M 249.250909 295.488 
L 251.869091 295.488 
M 251.869091 295.488 
L 254.487273 295.488 
M 254.487273 295.488 
L 257.105455 295.488 
M 257.105455 295.488 
L 259.723636 295.488 
M 259.723636 295.488 
L 262.341818 295.488 
M 262.341818 295.488 
L 264.96 295.488 
M 264.96 295.488 
L 267.578182 295.488 
M 267.578182 295.488 
L 270.196364 295.488 
M 270.196364 295.488 
L 272.814545 295.488 
M 272.814545 295.488 
L 275.432727 295.488 
M 275.432727 295.488 
L 278.050909 295.488 
M 278.050909 295.488 
L 280.669091 295.488 
M 280.669091 295.488 
L 283.287273 295.488 
M 283.287273 295.488 
L 285.905455 295.488 
M 285.905455 295.488 
L 288.523636 295.488 
M 288.523636 295.488 
L 291.141818 295.488 
M 291.141818 295.488 
L 293.76 295.488 
M 293.76 295.488 
L 296.378182 295.488 
M 296.378182 295.488 
L 298.996364 295.488 
M 298.996364 295.488 
L 301.614545 295.488 
M 301.614545 295.488 
L 304.232727 295.488 
M 304.232727 295.488 
L 306.850909 295.488 
M 306.850909 295.488 
L 309.469091 295.488 
M 309.469091 295.488 
L 312.087273 295.488 
M 312.087273 295.488 
L 314.705455 295.488 
M 314.705455 295.488 
L 317.323636 295.488 
M 317.323636 295.488 
L 319.941818 295.488 
M 319.941818 295.488 
L 322.56 295.488 
M 322.56 295.488 
L 325.178182 295.488 
M 325.178182 295.488 
L 327.796364 295.488 
M 327.796364 295.488 
L 330.414545 295.488 
M 330.414545 295.488 
L 333.032727 295.488 
M 333.032727 295.488 
L 335.650909 295.488 
M 335.650909 295.488 
L 338.269091 295.488 
M 338.269091 295.488 
L 340.887273 295.488 
M 340.887273 295.488 
L 343.505455 295.488 
M 343.505455 295.488 
L 346.123636 295.488 
M 346.123636 295.488 
L 348.741818 295.488 
M 348.741818 295.488 
L 351.36 295.488 
M 351.36 295.488 
L 353.978182 295.488 
M 353.978182 295.488 
L 356.596364 295.488 
M 356.596364 295.488 
L 359.214545 295.488 
M 359.214545 295.488 
L 361.832727 295.488 
M 361.832727 295.488 
L 364.450909 295.488 
M 364.450909 295.488 
L 367.069091 295.488 
M 367.069091 295.488 
L 369.687273 295.488 
M 369.687273 295.488 
L 372.305455 295.488 
M 372.305455 295.488 
L 374.923636 295.488 
M 374.923636 295.488 
L 377.541818 295.488 
M 377.541818 295.488 
L 380.16 295.488 
M 380.16 295.488 
L 382.778182 295.488 
M 382.778182 295.488 
L 385.396364 295.488 
M 385.396364 295.488 
L 388.014545 295.488 
M 388.014545 295.488 
L 390.632727 295.488 
M 390.632727 295.488 
L 393.250909 295.488 
M 393.250909 295.488 
L 395.869091 295.488 
M 395.869091 295.488 
L 398.487273 295.488 
L 398.487273 295.488 
" clip-path="url(#p9ce2eeedc2)" style="fill: none; stroke: #d62728; stroke-width: 1.5; stroke-linecap: square"/>
   </g>
   <g id="line2d_16">
    <path d="M 73.832727 295.488 
L 76.450909 295.488 
M 76.450909 295.488 
L 79.069091 295.488 
M 79.069091 295.488 
L 81.687273 295.488 
M 81.687273 295.488 
L 84.305455 295.488 
M 84.305455 295.488 
L 86.923636 295.488 
M 86.923636 295.488 
L 89.541818 295.488 
M 89.541818 295.488 
L 92.16 295.488 
M 92.16 295.488 
L 94.778182 295.488 
M 94.778182 295.488 
L 97.396364 295.488 
M 97.396364 295.488 
L 100.014545 295.488 
M 100.014545 295.488 
L 102.632727 295.488 
M 102.632727 295.488 
L 105.250909 295.488 
M 105.250909 295.488 
L 107.869091 295.488 
M 107.869091 295.488 
L 110.487273 295.488 
M 110.487273 295.488 
L 113.105455 295.488 
M 113.105455 295.488 
L 115.723636 295.488 
M 115.723636 295.488 
L 118.341818 295.488 
M 118.341818 295.488 
L 120.96 295.488 
M 120.96 295.488 
L 123.578182 295.488 
M 123.578182 295.488 
L 126.196364 295.488 
M 126.196364 295.488 
L 128.814545 295.488 
M 128.814545 295.488 
L 131.432727 295.488 
M 131.432727 295.488 
L 134.050909 295.488 
M 134.050909 295.488 
L 136.669091 295.488 
M 136.669091 295.488 
L 139.287273 295.488 
M 139.287273 295.488 
L 141.905455 295.488 
M 141.905455 295.488 
L 144.523636 295.488 
M 144.523636 295.488 
L 147.141818 295.488 
M 147.141818 295.488 
L 149.76 295.488 
M 149.76 295.488 
L 152.378182 295.488 
M 152.378182 295.488 
L 154.996364 295.488 
M 154.996364 295.488 
L 157.614545 295.236262 
M 157.614545 295.236262 
L 160.232727 294.481049 
M 160.232727 294.481049 
L 162.850909 293.22236 
M 162.850909 293.22236 
L 165.469091 291.460196 
M 165.469091 291.460196 
L 168.087273 289.194556 
M 168.087273 289.194556 
L 170.705455 286.42544 
M 170.705455 286.42544 
L 173.323636 283.152849 
M 173.323636 283.152849 
L 175.941818 279.376783 
M 175.941818 279.376783 
L 178.56 275.09724 
M 178.56 275.09724 
L 181.178182 270.314223 
M 181.178182 270.314223 
L 183.796364 265.027729 
M 183.796364 265.027729 
L 186.414545 259.237761 
M 186.414545 259.237761 
L 189.032727 252.944316 
M 189.032727 252.944316 
L 191.650909 246.147396 
M 191.650909 246.147396 
L 194.269091 238.847001 
M 194.269091 238.847001 
L 196.887273 231.04313 
M 196.887273 231.04313 
L 199.505455 222.735784 
M 199.505455 222.735784 
L 202.123636 213.924961 
M 202.123636 213.924961 
L 204.741818 204.610664 
M 204.741818 204.610664 
L 207.36 194.792891 
M 207.36 194.792891 
L 209.978182 184.471642 
M 209.978182 184.471642 
L 212.596364 173.646918 
M 212.596364 173.646918 
L 215.214545 162.318718 
M 215.214545 162.318718 
L 217.832727 150.487043 
M 217.832727 150.487043 
L 220.450909 138.151892 
M 220.450909 138.151892 
L 223.069091 125.313265 
M 223.069091 125.313265 
L 225.687273 111.971163 
M 225.687273 111.971163 
L 228.305455 98.125586 
M 228.305455 98.125586 
L 230.923636 83.776533 
M 230.923636 83.776533 
L 233.541818 68.924004 
M 233.541818 68.924004 
L 236.16 53.568 
M 236.16 53.568 
L 238.778182 68.924004 
M 238.778182 68.924004 
L 241.396364 83.776533 
M 241.396364 83.776533 
L 244.014545 98.125586 
M 244.014545 98.125586 
L 246.632727 111.971163 
M 246.632727 111.971163 
L 249.250909 125.313265 
M 249.250909 125.313265 
L 251.869091 138.151892 
M 251.869091 138.151892 
L 254.487273 150.487043 
M 254.487273 150.487043 
L 257.105455 162.318718 
M 257.105455 162.318718 
L 259.723636 173.646918 
M 259.723636 173.646918 
L 262.341818 184.471642 
M 262.341818 184.471642 
L 264.96 194.792891 
M 264.96 194.792891 
L 267.578182 204.610664 
M 267.578182 204.610664 
L 270.196364 213.924961 
M 270.196364 213.924961 
L 272.814545 222.735784 
M 272.814545 222.735784 
L 275.432727 231.04313 
M 275.432727 231.04313 
L 278.050909 238.847001 
M 278.050909 238.847001 
L 280.669091 246.147396 
M 280.669091 246.147396 
L 283.287273 252.944316 
M 283.287273 252.944316 
L 285.905455 259.237761 
M 285.905455 259.237761 
L 288.523636 265.027729 
M 288.523636 265.027729 
L 291.141818 270.314223 
M 291.141818 270.314223 
L 293.76 275.09724 
M 293.76 275.09724 
L 296.378182 279.376783 
M 296.378182 279.376783 
L 298.996364 283.152849 
M 298.996364 283.152849 
L 301.614545 286.42544 
M 301.614545 286.42544 
L 304.232727 289.194556 
M 304.232727 289.194556 
L 306.850909 291.460196 
M 306.850909 291.460196 
L 309.469091 293.22236 
M 309.469091 293.22236 
L 312.087273 294.481049 
M 312.087273 294.481049 
L 314.705455 295.236262 
M 314.705455 295.236262 
L 317.323636 295.488 
M 317.323636 295.488 
L 319.941818 295.488 
M 319.941818 295.488 
L 322.56 295.488 
M 322.56 295.488 
L 325.178182 295.488 
M 325.178182 295.488 
L 327.796364 295.488 
M 327.796364 295.488 
L 330.414545 295.488 
M 330.414545 295.488 
L 333.032727 295.488 
M 333.032727 295.488 
L 335.650909 295.488 
M 335.650909 295.488 
L 338.269091 295.488 
M 338.269091 295.488 
L 340.887273 295.488 
M 340.887273 295.488 
L 343.505455 295.488 
M 343.505455 295.488 
L 346.123636 295.488 
M 346.123636 295.488 
L 348.741818 295.488 
M 348.741818 295.488 
L 351.36 295.488 
M 351.36 295.488 
L 353.978182 295.488 
M 353.978182 295.488 
L 356.596364 295.488 
M 356.596364 295.488 
L 359.214545 295.488 
M 359.214545 295.488 
L 361.832727 295.488 
M 361.832727 295.488 
L 364.450909 295.488 
M 364.450909 295.488 
L 367.069091 295.488 
M 367.069091 295.488 
L 369.687273 295.488 
M 369.687273 295.488 
L 372.305455 295.488 
M 372.305455 295.488 
L 374.923636 295.488 
M 374.923636 295.488 
L 377.541818 295.488 
M 377.541818 295.488 
L 380.16 295.488 
M 380.16 295.488 
L 382.778182 295.488 
M 382.778182 295.488 
L 385.396364 295.488 
M 385.396364 295.488 
L 388.014545 295.488 
M 388.014545 295.488 
L 390.632727 295.488 
M 390.632727 295.488 
L 393.250909 295.488 
M 393.250909 295.488 
L 395.869091 295.488 
M 395.869091 295.488 
L 398.487273 295.488 
L 398.487273 295.488 
" clip-path="url(#p9ce2eeedc2)" style="fill: none; stroke: #9467bd; stroke-width: 1.5; stroke-linecap: square"/>
   </g>
   <g id="line2d_17">
    <path d="M 73.832727 295.488 
L 76.450909 295.488 
M 76.450909 295.488 
L 79.069091 295.488 
M 79.069091 295.488 
L 81.687273 295.488 
M 81.687273 295.488 
L 84.305455 295.488 
M 84.305455 295.488 
L 86.923636 295.488 
M 86.923636 295.488 
L 89.541818 295.488 
M 89.541818 295.488 
L 92.16 295.488 
M 92.16 295.488 
L 94.778182 295.488 
M 94.778182 295.488 
L 97.396364 295.488 
M 97.396364 295.488 
L 100.014545 295.488 
M 100.014545 295.488 
L 102.632727 295.488 
M 102.632727 295.488 
L 105.250909 295.488 
M 105.250909 295.488 
L 107.869091 295.488 
M 107.869091 295.488 
L 110.487273 295.488 
M 110.487273 295.488 
L 113.105455 295.488 
M 113.105455 295.488 
L 115.723636 295.488 
M 115.723636 295.488 
L 118.341818 295.488 
M 118.341818 295.488 
L 120.96 295.488 
M 120.96 295.488 
L 123.578182 295.488 
M 123.578182 295.488 
L 126.196364 295.488 
M 126.196364 295.488 
L 128.814545 295.488 
M 128.814545 295.488 
L 131.432727 295.488 
M 131.432727 295.488 
L 134.050909 295.488 
M 134.050909 295.488 
L 136.669091 295.488 
M 136.669091 295.488 
L 139.287273 295.488 
M 139.287273 295.488 
L 141.905455 295.488 
M 141.905455 295.488 
L 144.523636 295.488 
M 144.523636 295.488 
L 147.141818 295.488 
M 147.141818 295.488 
L 149.76 295.488 
M 149.76 295.488 
L 152.378182 295.488 
M 152.378182 295.488 
L 154.996364 295.488 
M 154.996364 295.488 
L 157.614545 295.488 
M 157.614545 295.488 
L 160.232727 295.488 
M 160.232727 295.488 
L 162.850909 295.488 
M 162.850909 295.488 
L 165.469091 295.488 
M 165.469091 295.488 
L 168.087273 295.488 
M 168.087273 295.488 
L 170.705455 295.488 
M 170.705455 295.488 
L 173.323636 295.488 
M 173.323636 295.488 
L 175.941818 295.488 
M 175.941818 295.488 
L 178.56 295.488 
M 178.56 295.488 
L 181.178182 295.488 
M 181.178182 295.488 
L 183.796364 295.488 
M 183.796364 295.488 
L 186.414545 295.488 
M 186.414545 295.488 
L 189.032727 295.488 
M 189.032727 295.488 
L 191.650909 295.488 
M 191.650909 295.488 
L 194.269091 295.488 
M 194.269091 295.488 
L 196.887273 295.488 
M 196.887273 295.488 
L 199.505455 295.488 
M 199.505455 295.488 
L 202.123636 295.488 
M 202.123636 295.488 
L 204.741818 295.488 
M 204.741818 295.488 
L 207.36 295.488 
M 207.36 295.488 
L 209.978182 295.488 
M 209.978182 295.488 
L 212.596364 295.488 
M 212.596364 295.488 
L 215.214545 295.488 
M 215.214545 295.488 
L 217.832727 295.488 
M 217.832727 295.488 
L 220.450909 295.488 
M 220.450909 295.488 
L 223.069091 295.488 
M 223.069091 295.488 
L 225.687273 295.488 
M 225.687273 295.488 
L 228.305455 295.488 
M 228.305455 295.488 
L 230.923636 295.488 
M 230.923636 295.488 
L 233.541818 295.488 
M 233.541818 295.488 
L 236.16 295.488 
M 236.16 295.488 
L 238.778182 280.383734 
M 238.778182 280.383734 
L 241.396364 266.286418 
M 241.396364 266.286418 
L 244.014545 253.196054 
M 244.014545 253.196054 
L 246.632727 241.112641 
M 246.632727 241.112641 
L 249.250909 230.036179 
M 249.250909 230.036179 
L 251.869091 219.966668 
M 251.869091 219.966668 
L 254.487273 210.904108 
M 254.487273 210.904108 
L 257.105455 202.848499 
M 257.105455 202.848499 
L 259.723636 195.799842 
M 259.723636 195.799842 
L 262.341818 189.758135 
M 262.341818 189.758135 
L 264.96 184.72338 
M 264.96 184.72338 
L 267.578182 180.695575 
M 267.578182 180.695575 
L 270.196364 177.674722 
M 270.196364 177.674722 
L 272.814545 175.66082 
M 272.814545 175.66082 
L 275.432727 174.653869 
M 275.432727 174.653869 
L 278.050909 174.653869 
M 278.050909 174.653869 
L 280.669091 175.66082 
M 280.669091 175.66082 
L 283.287273 177.674722 
M 283.287273 177.674722 
L 285.905455 180.695575 
M 285.905455 180.695575 
L 288.523636 184.72338 
M 288.523636 184.72338 
L 291.141818 189.758135 
M 291.141818 189.758135 
L 293.76 195.799842 
M 293.76 195.799842 
L 296.378182 202.848499 
M 296.378182 202.848499 
L 298.996364 210.904108 
M 298.996364 210.904108 
L 301.614545 219.966668 
M 301.614545 219.966668 
L 304.232727 230.036179 
M 304.232727 230.036179 
L 306.850909 241.112641 
M 306.850909 241.112641 
L 309.469091 253.196054 
M 309.469091 253.196054 
L 312.087273 266.286418 
M 312.087273 266.286418 
L 314.705455 280.383734 
M 314.705455 280.383734 
L 317.323636 295.488 
M 317.323636 295.488 
L 319.941818 295.488 
M 319.941818 295.488 
L 322.56 295.488 
M 322.56 295.488 
L 325.178182 295.488 
M 325.178182 295.488 
L 327.796364 295.488 
M 327.796364 295.488 
L 330.414545 295.488 
M 330.414545 295.488 
L 333.032727 295.488 
M 333.032727 295.488 
L 335.650909 295.488 
M 335.650909 295.488 
L 338.269091 295.488 
M 338.269091 295.488 
L 340.887273 295.488 
M 340.887273 295.488 
L 343.505455 295.488 
M 343.505455 295.488 
L 346.123636 295.488 
M 346.123636 295.488 
L 348.741818 295.488 
M 348.741818 295.488 
L 351.36 295.488 
M 351.36 295.488 
L 353.978182 295.488 
M 353.978182 295.488 
L 356.596364 295.488 
M 356.596364 295.488 
L 359.214545 295.488 
M 359.214545 295.488 
L 361.832727 295.488 
M 361.832727 295.488 
L 364.450909 295.488 
M 364.450909 295.488 
L 367.069091 295.488 
M 367.069091 295.488 
L 369.687273 295.488 
M 369.687273 295.488 
L 372.305455 295.488 
M 372.305455 295.488 
L 374.923636 295.488 
M 374.923636 295.488 
L 377.541818 295.488 
M 377.541818 295.488 
L 380.16 295.488 
M 380.16 295.488 
L 382.778182 295.488 
M 382.778182 295.488 
L 385.396364 295.488 
M 385.396364 295.488 
L 388.014545 295.488 
M 388.014545 295.488 
L 390.632727 295.488 
M 390.632727 295.488 
L 393.250909 295.488 
M 393.250909 295.488 
L 395.869091 295.488 
M 395.869091 295.488 
L 398.487273 295.488 
L 398.487273 295.488 
" clip-path="url(#p9ce2eeedc2)" style="fill: none; stroke: #8c564b; stroke-width: 1.5; stroke-linecap: square"/>
   </g>
   <g id="line2d_18">
    <path d="M 73.832727 295.488 
L 76.450909 295.488 
M 76.450909 295.488 
L 79.069091 295.488 
M 79.069091 295.488 
L 81.687273 295.488 
M 81.687273 295.488 
L 84.305455 295.488 
M 84.305455 295.488 
L 86.923636 295.488 
M 86.923636 295.488 
L 89.541818 295.488 
M 89.541818 295.488 
L 92.16 295.488 
M 92.16 295.488 
L 94.778182 295.488 
M 94.778182 295.488 
L 97.396364 295.488 
M 97.396364 295.488 
L 100.014545 295.488 
M 100.014545 295.488 
L 102.632727 295.488 
M 102.632727 295.488 
L 105.250909 295.488 
M 105.250909 295.488 
L 107.869091 295.488 
M 107.869091 295.488 
L 110.487273 295.488 
M 110.487273 295.488 
L 113.105455 295.488 
M 113.105455 295.488 
L 115.723636 295.488 
M 115.723636 295.488 
L 118.341818 295.488 
M 118.341818 295.488 
L 120.96 295.488 
M 120.96 295.488 
L 123.578182 295.488 
M 123.578182 295.488 
L 126.196364 295.488 
M 126.196364 295.488 
L 128.814545 295.488 
M 128.814545 295.488 
L 131.432727 295.488 
M 131.432727 295.488 
L 134.050909 295.488 
M 134.050909 295.488 
L 136.669091 295.488 
M 136.669091 295.488 
L 139.287273 295.488 
M 139.287273 295.488 
L 141.905455 295.488 
M 141.905455 295.488 
L 144.523636 295.488 
M 144.523636 295.488 
L 147.141818 295.488 
M 147.141818 295.488 
L 149.76 295.488 
M 149.76 295.488 
L 152.378182 295.488 
M 152.378182 295.488 
L 154.996364 295.488 
M 154.996364 295.488 
L 157.614545 295.488 
M 157.614545 295.488 
L 160.232727 295.488 
M 160.232727 295.488 
L 162.850909 295.488 
M 162.850909 295.488 
L 165.469091 295.488 
M 165.469091 295.488 
L 168.087273 295.488 
M 168.087273 295.488 
L 170.705455 295.488 
M 170.705455 295.488 
L 173.323636 295.488 
M 173.323636 295.488 
L 175.941818 295.488 
M 175.941818 295.488 
L 178.56 295.488 
M 178.56 295.488 
L 181.178182 295.488 
M 181.178182 295.488 
L 183.796364 295.488 
M 183.796364 295.488 
L 186.414545 295.488 
M 186.414545 295.488 
L 189.032727 295.488 
M 189.032727 295.488 
L 191.650909 295.488 
M 191.650909 295.488 
L 194.269091 295.488 
M 194.269091 295.488 
L 196.887273 295.488 
M 196.887273 295.488 
L 199.505455 295.488 
M 199.505455 295.488 
L 202.123636 295.488 
M 202.123636 295.488 
L 204.741818 295.488 
M 204.741818 295.488 
L 207.36 295.488 
M 207.36 295.488 
L 209.978182 295.488 
M 209.978182 295.488 
L 212.596364 295.488 
M 212.596364 295.488 
L 215.214545 295.488 
M 215.214545 295.488 
L 217.832727 295.488 
M 217.832727 295.488 
L 220.450909 295.488 
M 220.450909 295.488 
L 223.069091 295.488 
M 223.069091 295.488 
L 225.687273 295.488 
M 225.687273 295.488 
L 228.305455 295.488 
M 228.305455 295.488 
L 230.923636 295.488 
M 230.923636 295.488 
L 233.541818 295.488 
M 233.541818 295.488 
L 236.16 295.488 
M 236.16 295.488 
L 238.778182 295.236262 
M 238.778182 295.236262 
L 241.396364 294.481049 
M 241.396364 294.481049 
L 244.014545 293.22236 
M 244.014545 293.22236 
L 246.632727 291.460196 
M 246.632727 291.460196 
L 249.250909 289.194556 
M 249.250909 289.194556 
L 251.869091 286.42544 
M 251.869091 286.42544 
L 254.487273 283.152849 
M 254.487273 283.152849 
L 257.105455 279.376783 
M 257.105455 279.376783 
L 259.723636 275.09724 
M 259.723636 275.09724 
L 262.341818 270.314223 
M 262.341818 270.314223 
L 264.96 265.027729 
M 264.96 265.027729 
L 267.578182 259.237761 
M 267.578182 259.237761 
L 270.196364 252.944316 
M 270.196364 252.944316 
L 272.814545 246.147396 
M 272.814545 246.147396 
L 275.432727 238.847001 
M 275.432727 238.847001 
L 278.050909 231.04313 
M 278.050909 231.04313 
L 280.669091 222.735784 
M 280.669091 222.735784 
L 283.287273 213.924961 
M 283.287273 213.924961 
L 285.905455 204.610664 
M 285.905455 204.610664 
L 288.523636 194.792891 
M 288.523636 194.792891 
L 291.141818 184.471642 
M 291.141818 184.471642 
L 293.76 173.646918 
M 293.76 173.646918 
L 296.378182 162.318718 
M 296.378182 162.318718 
L 298.996364 150.487043 
M 298.996364 150.487043 
L 301.614545 138.151892 
M 301.614545 138.151892 
L 304.232727 125.313265 
M 304.232727 125.313265 
L 306.850909 111.971163 
M 306.850909 111.971163 
L 309.469091 98.125586 
M 309.469091 98.125586 
L 312.087273 83.776533 
M 312.087273 83.776533 
L 314.705455 68.924004 
M 314.705455 68.924004 
L 317.323636 53.568 
M 317.323636 53.568 
L 319.941818 68.924004 
M 319.941818 68.924004 
L 322.56 83.776533 
M 322.56 83.776533 
L 325.178182 98.125586 
M 325.178182 98.125586 
L 327.796364 111.971163 
M 327.796364 111.971163 
L 330.414545 125.313265 
M 330.414545 125.313265 
L 333.032727 138.151892 
M 333.032727 138.151892 
L 335.650909 150.487043 
M 335.650909 150.487043 
L 338.269091 162.318718 
M 338.269091 162.318718 
L 340.887273 173.646918 
M 340.887273 173.646918 
L 343.505455 184.471642 
M 343.505455 184.471642 
L 346.123636 194.792891 
M 346.123636 194.792891 
L 348.741818 204.610664 
M 348.741818 204.610664 
L 351.36 213.924961 
M 351.36 213.924961 
L 353.978182 222.735784 
M 353.978182 222.735784 
L 356.596364 231.04313 
M 356.596364 231.04313 
L 359.214545 238.847001 
M 359.214545 238.847001 
L 361.832727 246.147396 
M 361.832727 246.147396 
L 364.450909 252.944316 
M 364.450909 252.944316 
L 367.069091 259.237761 
M 367.069091 259.237761 
L 369.687273 265.027729 
M 369.687273 265.027729 
L 372.305455 270.314223 
M 372.305455 270.314223 
L 374.923636 275.09724 
M 374.923636 275.09724 
L 377.541818 279.376783 
M 377.541818 279.376783 
L 380.16 283.152849 
M 380.16 283.152849 
L 382.778182 286.42544 
M 382.778182 286.42544 
L 385.396364 289.194556 
M 385.396364 289.194556 
L 388.014545 291.460196 
M 388.014545 291.460196 
L 390.632727 293.22236 
M 390.632727 293.22236 
L 393.250909 294.481049 
M 393.250909 294.481049 
L 395.869091 295.236262 
M 395.869091 295.236262 
L 398.487273 295.488 
L 398.487273 295.488 
" clip-path="url(#p9ce2eeedc2)" style="fill: none; stroke: #e377c2; stroke-width: 1.5; stroke-linecap: square"/>
   </g>
   <g id="line2d_19">
    <path d="M 73.832727 295.488 
L 76.450909 295.488 
M 76.450909 295.488 
L 79.069091 295.488 
M 79.069091 295.488 
L 81.687273 295.488 
M 81.687273 295.488 
L 84.305455 295.488 
M 84.305455 295.488 
L 86.923636 295.488 
M 86.923636 295.488 
L 89.541818 295.488 
M 89.541818 295.488 
L 92.16 295.488 
M 92.16 295.488 
L 94.778182 295.488 
M 94.778182 295.488 
L 97.396364 295.488 
M 97.396364 295.488 
L 100.014545 295.488 
M 100.014545 295.488 
L 102.632727 295.488 
M 102.632727 295.488 
L 105.250909 295.488 
M 105.250909 295.488 
L 107.869091 295.488 
M 107.869091 295.488 
L 110.487273 295.488 
M 110.487273 295.488 
L 113.105455 295.488 
M 113.105455 295.488 
L 115.723636 295.488 
M 115.723636 295.488 
L 118.341818 295.488 
M 118.341818 295.488 
L 120.96 295.488 
M 120.96 295.488 
L 123.578182 295.488 
M 123.578182 295.488 
L 126.196364 295.488 
M 126.196364 295.488 
L 128.814545 295.488 
M 128.814545 295.488 
L 131.432727 295.488 
M 131.432727 295.488 
L 134.050909 295.488 
M 134.050909 295.488 
L 136.669091 295.488 
M 136.669091 295.488 
L 139.287273 295.488 
M 139.287273 295.488 
L 141.905455 295.488 
M 141.905455 295.488 
L 144.523636 295.488 
M 144.523636 295.488 
L 147.141818 295.488 
M 147.141818 295.488 
L 149.76 295.488 
M 149.76 295.488 
L 152.378182 295.488 
M 152.378182 295.488 
L 154.996364 295.488 
M 154.996364 295.488 
L 157.614545 295.488 
M 157.614545 295.488 
L 160.232727 295.488 
M 160.232727 295.488 
L 162.850909 295.488 
M 162.850909 295.488 
L 165.469091 295.488 
M 165.469091 295.488 
L 168.087273 295.488 
M 168.087273 295.488 
L 170.705455 295.488 
M 170.705455 295.488 
L 173.323636 295.488 
M 173.323636 295.488 
L 175.941818 295.488 
M 175.941818 295.488 
L 178.56 295.488 
M 178.56 295.488 
L 181.178182 295.488 
M 181.178182 295.488 
L 183.796364 295.488 
M 183.796364 295.488 
L 186.414545 295.488 
M 186.414545 295.488 
L 189.032727 295.488 
M 189.032727 295.488 
L 191.650909 295.488 
M 191.650909 295.488 
L 194.269091 295.488 
M 194.269091 295.488 
L 196.887273 295.488 
M 196.887273 295.488 
L 199.505455 295.488 
M 199.505455 295.488 
L 202.123636 295.488 
M 202.123636 295.488 
L 204.741818 295.488 
M 204.741818 295.488 
L 207.36 295.488 
M 207.36 295.488 
L 209.978182 295.488 
M 209.978182 295.488 
L 212.596364 295.488 
M 212.596364 295.488 
L 215.214545 295.488 
M 215.214545 295.488 
L 217.832727 295.488 
M 217.832727 295.488 
L 220.450909 295.488 
M 220.450909 295.488 
L 223.069091 295.488 
M 223.069091 295.488 
L 225.687273 295.488 
M 225.687273 295.488 
L 228.305455 295.488 
M 228.305455 295.488 
L 230.923636 295.488 
M 230.923636 295.488 
L 233.541818 295.488 
M 233.541818 295.488 
L 236.16 295.488 
M 236.16 295.488 
L 238.778182 295.488 
M 238.778182 295.488 
L 241.396364 295.488 
M 241.396364 295.488 
L 244.014545 295.488 
M 244.014545 295.488 
L 246.632727 295.488 
M 246.632727 295.488 
L 249.250909 295.488 
M 249.250909 295.488 
L 251.869091 295.488 
M 251.869091 295.488 
L 254.487273 295.488 
M 254.487273 295.488 
L 257.105455 295.488 
M 257.105455 295.488 
L 259.723636 295.488 
M 259.723636 295.488 
L 262.341818 295.488 
M 262.341818 295.488 
L 264.96 295.488 
M 264.96 295.488 
L 267.578182 295.488 
M 267.578182 295.488 
L 270.196364 295.488 
M 270.196364 295.488 
L 272.814545 295.488 
M 272.814545 295.488 
L 275.432727 295.488 
M 275.432727 295.488 
L 278.050909 295.488 
M 278.050909 295.488 
L 280.669091 295.488 
M 280.669091 295.488 
L 283.287273 295.488 
M 283.287273 295.488 
L 285.905455 295.488 
M 285.905455 295.488 
L 288.523636 295.488 
M 288.523636 295.488 
L 291.141818 295.488 
M 291.141818 295.488 
L 293.76 295.488 
M 293.76 295.488 
L 296.378182 295.488 
M 296.378182 295.488 
L 298.996364 295.488 
M 298.996364 295.488 
L 301.614545 295.488 
M 301.614545 295.488 
L 304.232727 295.488 
M 304.232727 295.488 
L 306.850909 295.488 
M 306.850909 295.488 
L 309.469091 295.488 
M 309.469091 295.488 
L 312.087273 295.488 
M 312.087273 295.488 
L 314.705455 295.488 
M 314.705455 295.488 
L 317.323636 295.488 
M 317.323636 295.488 
L 319.941818 280.383734 
M 319.941818 280.383734 
L 322.56 266.286418 
M 322.56 266.286418 
L 325.178182 253.196054 
M 325.178182 253.196054 
L 327.796364 241.112641 
M 327.796364 241.112641 
L 330.414545 230.036179 
M 330.414545 230.036179 
L 333.032727 219.966668 
M 333.032727 219.966668 
L 335.650909 210.904108 
M 335.650909 210.904108 
L 338.269091 202.848499 
M 338.269091 202.848499 
L 340.887273 195.799842 
M 340.887273 195.799842 
L 343.505455 189.758135 
M 343.505455 189.758135 
L 346.123636 184.72338 
M 346.123636 184.72338 
L 348.741818 180.695575 
M 348.741818 180.695575 
L 351.36 177.674722 
M 351.36 177.674722 
L 353.978182 175.66082 
M 353.978182 175.66082 
L 356.596364 174.653869 
M 356.596364 174.653869 
L 359.214545 174.653869 
M 359.214545 174.653869 
L 361.832727 175.66082 
M 361.832727 175.66082 
L 364.450909 177.674722 
M 364.450909 177.674722 
L 367.069091 180.695575 
M 367.069091 180.695575 
L 369.687273 184.72338 
M 369.687273 184.72338 
L 372.305455 189.758135 
M 372.305455 189.758135 
L 374.923636 195.799842 
M 374.923636 195.799842 
L 377.541818 202.848499 
M 377.541818 202.848499 
L 380.16 210.904108 
M 380.16 210.904108 
L 382.778182 219.966668 
M 382.778182 219.966668 
L 385.396364 230.036179 
M 385.396364 230.036179 
L 388.014545 241.112641 
M 388.014545 241.112641 
L 390.632727 253.196054 
M 390.632727 253.196054 
L 393.250909 266.286418 
M 393.250909 266.286418 
L 395.869091 280.383734 
M 395.869091 280.383734 
L 398.487273 295.488 
L 398.487273 295.488 
" clip-path="url(#p9ce2eeedc2)" style="fill: none; stroke: #7f7f7f; stroke-width: 1.5; stroke-linecap: square"/>
   </g>
   <g id="line2d_20">
    <path d="M 73.832727 295.488 
L 76.450909 295.488 
M 76.450909 295.488 
L 79.069091 295.488 
M 79.069091 295.488 
L 81.687273 295.488 
M 81.687273 295.488 
L 84.305455 295.488 
M 84.305455 295.488 
L 86.923636 295.488 
M 86.923636 295.488 
L 89.541818 295.488 
M 89.541818 295.488 
L 92.16 295.488 
M 92.16 295.488 
L 94.778182 295.488 
M 94.778182 295.488 
L 97.396364 295.488 
M 97.396364 295.488 
L 100.014545 295.488 
M 100.014545 295.488 
L 102.632727 295.488 
M 102.632727 295.488 
L 105.250909 295.488 
M 105.250909 295.488 
L 107.869091 295.488 
M 107.869091 295.488 
L 110.487273 295.488 
M 110.487273 295.488 
L 113.105455 295.488 
M 113.105455 295.488 
L 115.723636 295.488 
M 115.723636 295.488 
L 118.341818 295.488 
M 118.341818 295.488 
L 120.96 295.488 
M 120.96 295.488 
L 123.578182 295.488 
M 123.578182 295.488 
L 126.196364 295.488 
M 126.196364 295.488 
L 128.814545 295.488 
M 128.814545 295.488 
L 131.432727 295.488 
M 131.432727 295.488 
L 134.050909 295.488 
M 134.050909 295.488 
L 136.669091 295.488 
M 136.669091 295.488 
L 139.287273 295.488 
M 139.287273 295.488 
L 141.905455 295.488 
M 141.905455 295.488 
L 144.523636 295.488 
M 144.523636 295.488 
L 147.141818 295.488 
M 147.141818 295.488 
L 149.76 295.488 
M 149.76 295.488 
L 152.378182 295.488 
M 152.378182 295.488 
L 154.996364 295.488 
M 154.996364 295.488 
L 157.614545 295.488 
M 157.614545 295.488 
L 160.232727 295.488 
M 160.232727 295.488 
L 162.850909 295.488 
M 162.850909 295.488 
L 165.469091 295.488 
M 165.469091 295.488 
L 168.087273 295.488 
M 168.087273 295.488 
L 170.705455 295.488 
M 170.705455 295.488 
L 173.323636 295.488 
M 173.323636 295.488 
L 175.941818 295.488 
M 175.941818 295.488 
L 178.56 295.488 
M 178.56 295.488 
L 181.178182 295.488 
M 181.178182 295.488 
L 183.796364 295.488 
M 183.796364 295.488 
L 186.414545 295.488 
M 186.414545 295.488 
L 189.032727 295.488 
M 189.032727 295.488 
L 191.650909 295.488 
M 191.650909 295.488 
L 194.269091 295.488 
M 194.269091 295.488 
L 196.887273 295.488 
M 196.887273 295.488 
L 199.505455 295.488 
M 199.505455 295.488 
L 202.123636 295.488 
M 202.123636 295.488 
L 204.741818 295.488 
M 204.741818 295.488 
L 207.36 295.488 
M 207.36 295.488 
L 209.978182 295.488 
M 209.978182 295.488 
L 212.596364 295.488 
M 212.596364 295.488 
L 215.214545 295.488 
M 215.214545 295.488 
L 217.832727 295.488 
M 217.832727 295.488 
L 220.450909 295.488 
M 220.450909 295.488 
L 223.069091 295.488 
M 223.069091 295.488 
L 225.687273 295.488 
M 225.687273 295.488 
L 228.305455 295.488 
M 228.305455 295.488 
L 230.923636 295.488 
M 230.923636 295.488 
L 233.541818 295.488 
M 233.541818 295.488 
L 236.16 295.488 
M 236.16 295.488 
L 238.778182 295.488 
M 238.778182 295.488 
L 241.396364 295.488 
M 241.396364 295.488 
L 244.014545 295.488 
M 244.014545 295.488 
L 246.632727 295.488 
M 246.632727 295.488 
L 249.250909 295.488 
M 249.250909 295.488 
L 251.869091 295.488 
M 251.869091 295.488 
L 254.487273 295.488 
M 254.487273 295.488 
L 257.105455 295.488 
M 257.105455 295.488 
L 259.723636 295.488 
M 259.723636 295.488 
L 262.341818 295.488 
M 262.341818 295.488 
L 264.96 295.488 
M 264.96 295.488 
L 267.578182 295.488 
M 267.578182 295.488 
L 270.196364 295.488 
M 270.196364 295.488 
L 272.814545 295.488 
M 272.814545 295.488 
L 275.432727 295.488 
M 275.432727 295.488 
L 278.050909 295.488 
M 278.050909 295.488 
L 280.669091 295.488 
M 280.669091 295.488 
L 283.287273 295.488 
M 283.287273 295.488 
L 285.905455 295.488 
M 285.905455 295.488 
L 288.523636 295.488 
M 288.523636 295.488 
L 291.141818 295.488 
M 291.141818 295.488 
L 293.76 295.488 
M 293.76 295.488 
L 296.378182 295.488 
M 296.378182 295.488 
L 298.996364 295.488 
M 298.996364 295.488 
L 301.614545 295.488 
M 301.614545 295.488 
L 304.232727 295.488 
M 304.232727 295.488 
L 306.850909 295.488 
M 306.850909 295.488 
L 309.469091 295.488 
M 309.469091 295.488 
L 312.087273 295.488 
M 312.087273 295.488 
L 314.705455 295.488 
M 314.705455 295.488 
L 317.323636 295.488 
M 317.323636 295.488 
L 319.941818 295.236262 
M 319.941818 295.236262 
L 322.56 294.481049 
M 322.56 294.481049 
L 325.178182 293.22236 
M 325.178182 293.22236 
L 327.796364 291.460196 
M 327.796364 291.460196 
L 330.414545 289.194556 
M 330.414545 289.194556 
L 333.032727 286.42544 
M 333.032727 286.42544 
L 335.650909 283.152849 
M 335.650909 283.152849 
L 338.269091 279.376783 
M 338.269091 279.376783 
L 340.887273 275.09724 
M 340.887273 275.09724 
L 343.505455 270.314223 
M 343.505455 270.314223 
L 346.123636 265.027729 
M 346.123636 265.027729 
L 348.741818 259.237761 
M 348.741818 259.237761 
L 351.36 252.944316 
M 351.36 252.944316 
L 353.978182 246.147396 
M 353.978182 246.147396 
L 356.596364 238.847001 
M 356.596364 238.847001 
L 359.214545 231.04313 
M 359.214545 231.04313 
L 361.832727 222.735784 
M 361.832727 222.735784 
L 364.450909 213.924961 
M 364.450909 213.924961 
L 367.069091 204.610664 
M 367.069091 204.610664 
L 369.687273 194.792891 
M 369.687273 194.792891 
L 372.305455 184.471642 
M 372.305455 184.471642 
L 374.923636 173.646918 
M 374.923636 173.646918 
L 377.541818 162.318718 
M 377.541818 162.318718 
L 380.16 150.487043 
M 380.16 150.487043 
L 382.778182 138.151892 
M 382.778182 138.151892 
L 385.396364 125.313265 
M 385.396364 125.313265 
L 388.014545 111.971163 
M 388.014545 111.971163 
L 390.632727 98.125586 
M 390.632727 98.125586 
L 393.250909 83.776533 
M 393.250909 83.776533 
L 395.869091 68.924004 
M 395.869091 68.924004 
L 398.487273 53.568 
L 398.487273 53.568 
" clip-path="url(#p9ce2eeedc2)" style="fill: none; stroke: #bcbd22; stroke-width: 1.5; stroke-linecap: square"/>
   </g>
   <g id="patch_3">
    <path d="M 57.6 307.584 
L 57.6 41.472 
" style="fill: none; stroke: #888888; stroke-width: 0.8; stroke-linejoin: miter; stroke-linecap: square"/>
   </g>
   <g id="patch_4">
    <path d="M 414.72 307.584 
L 414.72 41.472 
" style="fill: none; stroke: #888888; stroke-width: 0.8; stroke-linejoin: miter; stroke-linecap: square"/>
   </g>
   <g id="patch_5">
    <path d="M 57.6 307.584 
L 414.72 307.584 
" style="fill: none; stroke: #888888; stroke-width: 0.8; stroke-linejoin: miter; stroke-linecap: square"/>
   </g>
   <g id="patch_6">
    <path d="M 57.6 41.472 
L 414.72 41.472 
" style="fill: none; stroke: #888888; stroke-width: 0.8; stroke-linejoin: miter; stroke-linecap: square"/>
   </g>
  </g>
 </g>
 <defs>
  <clipPath id="p9ce2eeedc2">
   <rect x="57.6" y="41.472" width="357.12" height="266.112"/>
  </clipPath>
 </defs>
</svg>
